<svg xmlns="http://www.w3.org/2000/svg" xmlns:xlink="http://www.w3.org/1999/xlink" width="300" zoomAndPan="magnify" viewBox="0 0 224.87999 187.499995" height="250" preserveAspectRatio="xMidYMid meet" version="1.0"><defs><g/></defs><g fill="#f5f5f5" fill-opacity="1"><g transform="translate(0.2392, 46.790994)"><g><path d="M 1.628906 -28.347656 C 1.277344 -28.347656 1.0625 -28.136719 1.0625 -27.78125 L 1.0625 -24.238281 C 1.0625 -23.882812 1.277344 -23.671875 1.628906 -23.671875 L 5.742188 -23.671875 L 5.742188 -0.566406 C 5.742188 -0.175781 5.953125 0 6.308594 0 L 9.992188 0 C 10.382812 0 10.558594 -0.175781 10.558594 -0.566406 L 10.558594 -23.671875 L 14.671875 -23.671875 C 15.058594 -23.671875 15.238281 -23.882812 15.238281 -24.238281 L 15.238281 -27.78125 C 15.238281 -28.136719 15.058594 -28.347656 14.671875 -28.347656 Z M 1.628906 -28.347656 "/></g></g></g><g fill="#f5f5f5" fill-opacity="1"><g transform="translate(17.2465, 46.790994)"><g><path d="M 11.125 -16.511719 L 6.589844 -16.511719 L 6.589844 -27.78125 C 6.589844 -28.136719 6.378906 -28.347656 6.023438 -28.347656 L 2.375 -28.347656 C 1.949219 -28.347656 1.773438 -28.136719 1.773438 -27.78125 L 1.773438 -0.566406 C 1.773438 -0.210938 1.949219 0 2.375 0 L 6.023438 0 C 6.378906 0 6.589844 -0.210938 6.589844 -0.566406 L 6.589844 -11.835938 L 11.125 -11.835938 L 11.125 -0.566406 C 11.125 -0.210938 11.339844 0 11.695312 0 L 15.34375 0 C 15.769531 0 15.945312 -0.210938 15.945312 -0.566406 L 15.945312 -27.78125 C 15.945312 -28.136719 15.769531 -28.347656 15.34375 -28.347656 L 11.695312 -28.347656 C 11.339844 -28.347656 11.125 -28.136719 11.125 -27.78125 Z M 11.125 -16.511719 "/></g></g></g><g fill="#f5f5f5" fill-opacity="1"><g transform="translate(35.671069, 46.790994)"><g><path d="M 15.910156 -27.78125 C 15.910156 -28.136719 15.769531 -28.347656 15.34375 -28.347656 L 2.304688 -28.347656 C 1.984375 -28.347656 1.773438 -28.136719 1.773438 -27.78125 L 1.773438 -0.566406 C 1.773438 -0.210938 1.984375 0 2.304688 0 L 15.34375 0 C 15.769531 0 15.910156 -0.210938 15.910156 -0.566406 L 15.910156 -4.109375 C 15.910156 -4.5 15.769531 -4.675781 15.34375 -4.675781 L 6.484375 -4.675781 L 6.484375 -11.835938 L 13.253906 -11.835938 C 13.609375 -11.835938 13.820312 -12.046875 13.820312 -12.4375 L 13.820312 -15.945312 C 13.820312 -16.335938 13.609375 -16.546875 13.253906 -16.546875 L 6.484375 -16.546875 L 6.484375 -23.636719 L 15.34375 -23.636719 C 15.769531 -23.636719 15.910156 -23.882812 15.910156 -24.238281 Z M 15.910156 -27.78125 "/></g></g></g><g fill="#f5f5f5" fill-opacity="1"><g transform="translate(54.060203, 46.790994)"><g/></g></g><g fill="#f5f5f5" fill-opacity="1"><g transform="translate(63.626861, 46.790994)"><g><path d="M 12.652344 -28.347656 C 12.261719 -28.347656 12.082031 -28.136719 12.082031 -27.78125 L 12.082031 -12.828125 L 11.871094 -12.828125 L 6.484375 -27.886719 C 6.378906 -28.207031 6.164062 -28.347656 5.847656 -28.347656 L 2.339844 -28.347656 C 1.984375 -28.347656 1.773438 -28.136719 1.773438 -27.78125 L 1.773438 -0.566406 C 1.773438 -0.210938 1.984375 0 2.339844 0 L 6.023438 0 C 6.414062 0 6.589844 -0.210938 6.589844 -0.566406 L 6.589844 -15.59375 L 6.769531 -15.59375 L 12.191406 -0.460938 C 12.296875 -0.140625 12.507812 0 12.828125 0 L 16.335938 0 C 16.691406 0 16.902344 -0.210938 16.902344 -0.566406 L 16.902344 -27.78125 C 16.902344 -28.136719 16.691406 -28.347656 16.335938 -28.347656 Z M 12.652344 -28.347656 "/></g></g></g><g fill="#f5f5f5" fill-opacity="1"><g transform="translate(83.008078, 46.790994)"><g><path d="M 16.335938 -23.246094 C 16.335938 -26.578125 14.5625 -28.347656 11.234375 -28.347656 L 2.339844 -28.347656 C 1.984375 -28.347656 1.773438 -28.136719 1.773438 -27.78125 L 1.773438 -0.566406 C 1.773438 -0.210938 1.984375 0 2.339844 0 L 6.023438 0 C 6.378906 0 6.589844 -0.210938 6.589844 -0.566406 L 6.589844 -9.496094 L 9.035156 -9.496094 L 11.410156 -0.496094 C 11.480469 -0.175781 11.660156 0 12.011719 0 L 15.699219 0 C 16.089844 0 16.300781 -0.210938 16.195312 -0.636719 L 13.75 -9.921875 C 15.449219 -10.667969 16.335938 -12.226562 16.335938 -14.601562 Z M 6.589844 -14.175781 L 6.589844 -23.671875 L 10.097656 -23.671875 C 11.019531 -23.671875 11.515625 -23.175781 11.515625 -22.253906 L 11.515625 -15.59375 C 11.515625 -14.671875 11.019531 -14.175781 10.097656 -14.175781 Z M 6.589844 -14.175781 "/></g></g></g><g fill="#f5f5f5" fill-opacity="1"><g transform="translate(101.822394, 46.790994)"><g><path d="M 1.773438 -0.707031 C 1.773438 -0.25 2.019531 0 2.480469 0 L 5.707031 0 C 6.164062 0 6.414062 -0.25 6.414062 -0.707031 L 6.414062 -3.96875 C 6.414062 -4.429688 6.164062 -4.675781 5.707031 -4.675781 L 2.480469 -4.675781 C 2.019531 -4.675781 1.773438 -4.429688 1.773438 -3.96875 Z M 1.773438 -0.707031 "/></g></g></g><g fill="#f5f5f5" fill-opacity="1"><g transform="translate(110.715849, 46.790994)"><g><path d="M 2.445312 -27.464844 C 1.984375 -27.425781 1.773438 -27.179688 1.773438 -26.71875 L 1.773438 -23.316406 C 1.773438 -22.855469 2.054688 -22.609375 2.515625 -22.679688 L 4.714844 -22.960938 L 4.714844 -0.566406 C 4.714844 -0.210938 4.890625 0 5.28125 0 L 8.964844 0 C 9.320312 0 9.53125 -0.210938 9.53125 -0.566406 L 9.53125 -27.78125 C 9.53125 -28.136719 9.320312 -28.347656 8.964844 -28.347656 Z M 2.445312 -27.464844 "/></g></g></g><g fill="#f5f5f5" fill-opacity="1"><g transform="translate(123.078215, 46.790994)"><g/></g></g><g fill="#f5f5f5" fill-opacity="1"><g transform="translate(0.2392, 83.996244)"><g><path d="M 6.875 -28.347656 C 3.578125 -28.347656 1.773438 -26.578125 1.773438 -23.246094 L 1.773438 -14.882812 C 1.773438 -14.210938 2.089844 -13.785156 2.730469 -13.570312 L 11.125 -10.808594 L 11.125 -6.09375 C 11.125 -5.136719 10.628906 -4.675781 9.710938 -4.675781 L 8.007812 -4.675781 C 7.121094 -4.675781 6.589844 -5.136719 6.589844 -6.09375 L 6.589844 -8.824219 C 6.589844 -9.214844 6.414062 -9.390625 6.023438 -9.390625 L 2.339844 -9.390625 C 1.984375 -9.390625 1.773438 -9.214844 1.773438 -8.824219 L 1.773438 -5.101562 C 1.773438 -1.773438 3.578125 0 6.875 0 L 10.84375 0 C 14.175781 0 15.945312 -1.773438 15.945312 -5.101562 L 15.945312 -13.289062 C 15.945312 -13.960938 15.628906 -14.351562 15.023438 -14.601562 L 6.589844 -17.363281 L 6.589844 -22.253906 C 6.589844 -23.175781 7.121094 -23.671875 8.007812 -23.671875 L 9.710938 -23.671875 C 10.667969 -23.671875 11.125 -23.175781 11.125 -22.253906 L 11.125 -19.488281 C 11.125 -19.136719 11.339844 -18.921875 11.695312 -18.921875 L 15.378906 -18.921875 C 15.769531 -18.921875 15.945312 -19.136719 15.945312 -19.488281 L 15.945312 -23.246094 C 15.945312 -26.578125 14.175781 -28.347656 10.84375 -28.347656 Z M 6.875 -28.347656 "/></g></g></g><g fill="#f5f5f5" fill-opacity="1"><g transform="translate(18.663769, 83.996244)"><g><path d="M 2.339844 -28.347656 C 1.949219 -28.347656 1.773438 -28.136719 1.773438 -27.78125 L 1.773438 -0.566406 C 1.773438 -0.210938 1.949219 0 2.339844 0 L 6.023438 0 C 6.378906 0 6.589844 -0.210938 6.589844 -0.566406 L 6.589844 -27.78125 C 6.589844 -28.136719 6.378906 -28.347656 6.023438 -28.347656 Z M 2.339844 -28.347656 "/></g></g></g><g fill="#f5f5f5" fill-opacity="1"><g transform="translate(27.734385, 83.996244)"><g><path d="M 1.628906 -28.347656 C 1.277344 -28.347656 1.0625 -28.136719 1.0625 -27.78125 L 1.0625 -24.238281 C 1.0625 -23.882812 1.277344 -23.671875 1.628906 -23.671875 L 5.742188 -23.671875 L 5.742188 -0.566406 C 5.742188 -0.175781 5.953125 0 6.308594 0 L 9.992188 0 C 10.382812 0 10.558594 -0.175781 10.558594 -0.566406 L 10.558594 -23.671875 L 14.671875 -23.671875 C 15.058594 -23.671875 15.238281 -23.882812 15.238281 -24.238281 L 15.238281 -27.78125 C 15.238281 -28.136719 15.058594 -28.347656 14.671875 -28.347656 Z M 1.628906 -28.347656 "/></g></g></g><g fill="#f5f5f5" fill-opacity="1"><g transform="translate(44.741686, 83.996244)"><g><path d="M 15.910156 -27.78125 C 15.910156 -28.136719 15.769531 -28.347656 15.34375 -28.347656 L 2.304688 -28.347656 C 1.984375 -28.347656 1.773438 -28.136719 1.773438 -27.78125 L 1.773438 -0.566406 C 1.773438 -0.210938 1.984375 0 2.304688 0 L 15.34375 0 C 15.769531 0 15.910156 -0.210938 15.910156 -0.566406 L 15.910156 -4.109375 C 15.910156 -4.5 15.769531 -4.675781 15.34375 -4.675781 L 6.484375 -4.675781 L 6.484375 -11.835938 L 13.253906 -11.835938 C 13.609375 -11.835938 13.820312 -12.046875 13.820312 -12.4375 L 13.820312 -15.945312 C 13.820312 -16.335938 13.609375 -16.546875 13.253906 -16.546875 L 6.484375 -16.546875 L 6.484375 -23.636719 L 15.34375 -23.636719 C 15.769531 -23.636719 15.910156 -23.882812 15.910156 -24.238281 Z M 15.910156 -27.78125 "/></g></g></g><g fill="#f5f5f5" fill-opacity="1"><g transform="translate(63.130819, 83.996244)"><g/></g></g><g fill="#f5f5f5" fill-opacity="1"><g transform="translate(72.697476, 83.996244)"><g><path d="M 15.945312 -27.78125 C 15.945312 -28.136719 15.734375 -28.347656 15.378906 -28.347656 L 2.339844 -28.347656 C 1.949219 -28.347656 1.773438 -28.136719 1.773438 -27.78125 L 1.773438 -0.566406 C 1.773438 -0.210938 1.949219 0 2.339844 0 L 6.023438 0 C 6.378906 0 6.589844 -0.210938 6.589844 -0.566406 L 6.589844 -11.871094 L 13.253906 -11.871094 C 13.609375 -11.871094 13.820312 -12.046875 13.820312 -12.4375 L 13.820312 -15.980469 C 13.820312 -16.335938 13.609375 -16.546875 13.253906 -16.546875 L 6.589844 -16.546875 L 6.589844 -23.671875 L 15.378906 -23.671875 C 15.734375 -23.671875 15.945312 -23.882812 15.945312 -24.238281 Z M 15.945312 -27.78125 "/></g></g></g><g fill="#f5f5f5" fill-opacity="1"><g transform="translate(91.122044, 83.996244)"><g><path d="M 1.773438 -5.101562 C 1.773438 -1.773438 3.542969 0 6.875 0 L 10.84375 0 C 14.175781 0 15.945312 -1.773438 15.945312 -5.101562 L 15.945312 -23.246094 C 15.945312 -26.578125 14.175781 -28.347656 10.84375 -28.347656 L 6.875 -28.347656 C 3.542969 -28.347656 1.773438 -26.578125 1.773438 -23.246094 Z M 7.902344 -4.570312 C 6.980469 -4.570312 6.484375 -5.03125 6.484375 -5.988281 L 6.484375 -22.359375 C 6.484375 -23.28125 6.980469 -23.777344 7.902344 -23.777344 L 9.957031 -23.777344 C 10.878906 -23.777344 11.375 -23.28125 11.375 -22.359375 L 11.375 -5.988281 C 11.375 -5.03125 10.878906 -4.570312 9.957031 -4.570312 Z M 7.902344 -4.570312 "/></g></g></g><g fill="#f5f5f5" fill-opacity="1"><g transform="translate(109.546617, 83.996244)"><g><path d="M 16.335938 -23.246094 C 16.335938 -26.578125 14.5625 -28.347656 11.234375 -28.347656 L 2.339844 -28.347656 C 1.984375 -28.347656 1.773438 -28.136719 1.773438 -27.78125 L 1.773438 -0.566406 C 1.773438 -0.210938 1.984375 0 2.339844 0 L 6.023438 0 C 6.378906 0 6.589844 -0.210938 6.589844 -0.566406 L 6.589844 -9.496094 L 9.035156 -9.496094 L 11.410156 -0.496094 C 11.480469 -0.175781 11.660156 0 12.011719 0 L 15.699219 0 C 16.089844 0 16.300781 -0.210938 16.195312 -0.636719 L 13.75 -9.921875 C 15.449219 -10.667969 16.335938 -12.226562 16.335938 -14.601562 Z M 6.589844 -14.175781 L 6.589844 -23.671875 L 10.097656 -23.671875 C 11.019531 -23.671875 11.515625 -23.175781 11.515625 -22.253906 L 11.515625 -15.59375 C 11.515625 -14.671875 11.019531 -14.175781 10.097656 -14.175781 Z M 6.589844 -14.175781 "/></g></g></g><g fill="#f5f5f5" fill-opacity="1"><g transform="translate(128.360938, 83.996244)"><g/></g></g><g fill="#f5f5f5" fill-opacity="1"><g transform="translate(137.927601, 83.996244)"><g><path d="M 18.851562 0 C 19.277344 0 19.417969 -0.210938 19.347656 -0.601562 L 13.464844 -27.851562 C 13.394531 -28.207031 13.183594 -28.347656 12.863281 -28.347656 L 7.9375 -28.347656 C 7.617188 -28.347656 7.40625 -28.207031 7.335938 -27.851562 L 1.453125 -0.601562 C 1.347656 -0.210938 1.523438 0 1.914062 0 L 5.707031 0 C 6.023438 0 6.203125 -0.175781 6.273438 -0.496094 L 7.230469 -5.667969 L 13.535156 -5.667969 L 14.527344 -0.496094 C 14.601562 -0.175781 14.777344 0 15.097656 0 Z M 12.652344 -9.78125 L 8.113281 -9.78125 L 10.382812 -22.148438 Z M 12.652344 -9.78125 "/></g></g></g><g fill="#f5f5f5" fill-opacity="1"><g transform="translate(159.39929, 83.996244)"><g><path d="M 6.589844 -4.675781 L 15.023438 -4.675781 C 15.414062 -4.675781 15.59375 -4.464844 15.59375 -4.109375 L 15.59375 -0.566406 C 15.59375 -0.175781 15.414062 0 15.023438 0 L 2.339844 0 C 1.984375 0 1.773438 -0.175781 1.773438 -0.566406 L 1.773438 -27.78125 C 1.773438 -28.136719 1.984375 -28.347656 2.339844 -28.347656 L 6.023438 -28.347656 C 6.414062 -28.347656 6.589844 -28.136719 6.589844 -27.78125 Z M 6.589844 -4.675781 "/></g></g></g><g fill="#f5f5f5" fill-opacity="1"><g transform="translate(177.469544, 83.996244)"><g><path d="M 6.589844 -4.675781 L 15.023438 -4.675781 C 15.414062 -4.675781 15.59375 -4.464844 15.59375 -4.109375 L 15.59375 -0.566406 C 15.59375 -0.175781 15.414062 0 15.023438 0 L 2.339844 0 C 1.984375 0 1.773438 -0.175781 1.773438 -0.566406 L 1.773438 -27.78125 C 1.773438 -28.136719 1.984375 -28.347656 2.339844 -28.347656 L 6.023438 -28.347656 C 6.414062 -28.347656 6.589844 -28.136719 6.589844 -27.78125 Z M 6.589844 -4.675781 "/></g></g></g><g fill="#f5f5f5" fill-opacity="1"><g transform="translate(0.2392, 121.201493)"><g><path d="M 1.628906 -28.347656 C 1.277344 -28.347656 1.0625 -28.136719 1.0625 -27.78125 L 1.0625 -24.238281 C 1.0625 -23.882812 1.277344 -23.671875 1.628906 -23.671875 L 5.742188 -23.671875 L 5.742188 -0.566406 C 5.742188 -0.175781 5.953125 0 6.308594 0 L 9.992188 0 C 10.382812 0 10.558594 -0.175781 10.558594 -0.566406 L 10.558594 -23.671875 L 14.671875 -23.671875 C 15.058594 -23.671875 15.238281 -23.882812 15.238281 -24.238281 L 15.238281 -27.78125 C 15.238281 -28.136719 15.058594 -28.347656 14.671875 -28.347656 Z M 1.628906 -28.347656 "/></g></g></g><g fill="#f5f5f5" fill-opacity="1"><g transform="translate(17.2465, 121.201493)"><g><path d="M 11.125 -16.511719 L 6.589844 -16.511719 L 6.589844 -27.78125 C 6.589844 -28.136719 6.378906 -28.347656 6.023438 -28.347656 L 2.375 -28.347656 C 1.949219 -28.347656 1.773438 -28.136719 1.773438 -27.78125 L 1.773438 -0.566406 C 1.773438 -0.210938 1.949219 0 2.375 0 L 6.023438 0 C 6.378906 0 6.589844 -0.210938 6.589844 -0.566406 L 6.589844 -11.835938 L 11.125 -11.835938 L 11.125 -0.566406 C 11.125 -0.210938 11.339844 0 11.695312 0 L 15.34375 0 C 15.769531 0 15.945312 -0.210938 15.945312 -0.566406 L 15.945312 -27.78125 C 15.945312 -28.136719 15.769531 -28.347656 15.34375 -28.347656 L 11.695312 -28.347656 C 11.339844 -28.347656 11.125 -28.136719 11.125 -27.78125 Z M 11.125 -16.511719 "/></g></g></g><g fill="#f5f5f5" fill-opacity="1"><g transform="translate(35.671069, 121.201493)"><g><path d="M 2.339844 -28.347656 C 1.949219 -28.347656 1.773438 -28.136719 1.773438 -27.78125 L 1.773438 -0.566406 C 1.773438 -0.210938 1.949219 0 2.339844 0 L 6.023438 0 C 6.378906 0 6.589844 -0.210938 6.589844 -0.566406 L 6.589844 -27.78125 C 6.589844 -28.136719 6.378906 -28.347656 6.023438 -28.347656 Z M 2.339844 -28.347656 "/></g></g></g><g fill="#f5f5f5" fill-opacity="1"><g transform="translate(44.741686, 121.201493)"><g><path d="M 12.652344 -28.347656 C 12.261719 -28.347656 12.082031 -28.136719 12.082031 -27.78125 L 12.082031 -12.828125 L 11.871094 -12.828125 L 6.484375 -27.886719 C 6.378906 -28.207031 6.164062 -28.347656 5.847656 -28.347656 L 2.339844 -28.347656 C 1.984375 -28.347656 1.773438 -28.136719 1.773438 -27.78125 L 1.773438 -0.566406 C 1.773438 -0.210938 1.984375 0 2.339844 0 L 6.023438 0 C 6.414062 0 6.589844 -0.210938 6.589844 -0.566406 L 6.589844 -15.59375 L 6.769531 -15.59375 L 12.191406 -0.460938 C 12.296875 -0.140625 12.507812 0 12.828125 0 L 16.335938 0 C 16.691406 0 16.902344 -0.210938 16.902344 -0.566406 L 16.902344 -27.78125 C 16.902344 -28.136719 16.691406 -28.347656 16.335938 -28.347656 Z M 12.652344 -28.347656 "/></g></g></g><g fill="#f5f5f5" fill-opacity="1"><g transform="translate(64.122904, 121.201493)"><g><path d="M 1.773438 -5.101562 C 1.773438 -1.773438 3.542969 0 6.875 0 L 11.550781 0 C 14.847656 0 16.65625 -1.773438 16.65625 -5.101562 L 16.65625 -14.953125 C 16.65625 -15.34375 16.441406 -15.519531 16.089844 -15.519531 L 10.132812 -15.519531 C 9.746094 -15.519531 9.566406 -15.34375 9.566406 -14.953125 L 9.566406 -11.410156 C 9.566406 -11.054688 9.746094 -10.84375 10.132812 -10.84375 L 11.976562 -10.84375 L 11.976562 -6.09375 C 11.976562 -5.136719 11.480469 -4.675781 10.558594 -4.675781 L 8.007812 -4.675781 C 7.085938 -4.675781 6.589844 -5.136719 6.589844 -6.09375 L 6.589844 -22.253906 C 6.589844 -23.175781 7.050781 -23.671875 8.007812 -23.671875 L 10.558594 -23.671875 C 11.480469 -23.671875 11.976562 -23.175781 11.976562 -22.253906 L 11.976562 -19.5625 C 11.976562 -19.207031 12.15625 -18.992188 12.542969 -18.992188 L 16.089844 -18.992188 C 16.441406 -18.992188 16.65625 -19.207031 16.65625 -19.5625 L 16.65625 -23.246094 C 16.65625 -26.578125 14.847656 -28.347656 11.550781 -28.347656 L 6.875 -28.347656 C 3.542969 -28.347656 1.773438 -26.578125 1.773438 -23.246094 Z M 1.773438 -5.101562 "/></g></g></g><g fill="#f5f5f5" fill-opacity="1"><g transform="translate(83.256103, 121.201493)"><g><path d="M 6.875 -28.347656 C 3.578125 -28.347656 1.773438 -26.578125 1.773438 -23.246094 L 1.773438 -14.882812 C 1.773438 -14.210938 2.089844 -13.785156 2.730469 -13.570312 L 11.125 -10.808594 L 11.125 -6.09375 C 11.125 -5.136719 10.628906 -4.675781 9.710938 -4.675781 L 8.007812 -4.675781 C 7.121094 -4.675781 6.589844 -5.136719 6.589844 -6.09375 L 6.589844 -8.824219 C 6.589844 -9.214844 6.414062 -9.390625 6.023438 -9.390625 L 2.339844 -9.390625 C 1.984375 -9.390625 1.773438 -9.214844 1.773438 -8.824219 L 1.773438 -5.101562 C 1.773438 -1.773438 3.578125 0 6.875 0 L 10.84375 0 C 14.175781 0 15.945312 -1.773438 15.945312 -5.101562 L 15.945312 -13.289062 C 15.945312 -13.960938 15.628906 -14.351562 15.023438 -14.601562 L 6.589844 -17.363281 L 6.589844 -22.253906 C 6.589844 -23.175781 7.121094 -23.671875 8.007812 -23.671875 L 9.710938 -23.671875 C 10.667969 -23.671875 11.125 -23.175781 11.125 -22.253906 L 11.125 -19.488281 C 11.125 -19.136719 11.339844 -18.921875 11.695312 -18.921875 L 15.378906 -18.921875 C 15.769531 -18.921875 15.945312 -19.136719 15.945312 -19.488281 L 15.945312 -23.246094 C 15.945312 -26.578125 14.175781 -28.347656 10.84375 -28.347656 Z M 6.875 -28.347656 "/></g></g></g><g fill="#f5f5f5" fill-opacity="1"><g transform="translate(101.680676, 121.201493)"><g/></g></g><g fill="#f5f5f5" fill-opacity="1"><g transform="translate(111.247339, 121.201493)"><g><path d="M 1.773438 -5.101562 C 1.773438 -1.773438 3.542969 0 6.875 0 L 11.550781 0 C 14.847656 0 16.65625 -1.773438 16.65625 -5.101562 L 16.65625 -14.953125 C 16.65625 -15.34375 16.441406 -15.519531 16.089844 -15.519531 L 10.132812 -15.519531 C 9.746094 -15.519531 9.566406 -15.34375 9.566406 -14.953125 L 9.566406 -11.410156 C 9.566406 -11.054688 9.746094 -10.84375 10.132812 -10.84375 L 11.976562 -10.84375 L 11.976562 -6.09375 C 11.976562 -5.136719 11.480469 -4.675781 10.558594 -4.675781 L 8.007812 -4.675781 C 7.085938 -4.675781 6.589844 -5.136719 6.589844 -6.09375 L 6.589844 -22.253906 C 6.589844 -23.175781 7.050781 -23.671875 8.007812 -23.671875 L 10.558594 -23.671875 C 11.480469 -23.671875 11.976562 -23.175781 11.976562 -22.253906 L 11.976562 -19.5625 C 11.976562 -19.207031 12.15625 -18.992188 12.542969 -18.992188 L 16.089844 -18.992188 C 16.441406 -18.992188 16.65625 -19.207031 16.65625 -19.5625 L 16.65625 -23.246094 C 16.65625 -26.578125 14.847656 -28.347656 11.550781 -28.347656 L 6.875 -28.347656 C 3.542969 -28.347656 1.773438 -26.578125 1.773438 -23.246094 Z M 1.773438 -5.101562 "/></g></g></g><g fill="#f5f5f5" fill-opacity="1"><g transform="translate(130.380538, 121.201493)"><g><path d="M 11.976562 -28.347656 C 11.585938 -28.347656 11.269531 -28.03125 11.269531 -27.640625 L 11.269531 -6.09375 C 11.269531 -5.136719 10.773438 -4.675781 9.851562 -4.675781 L 8.007812 -4.675781 C 7.085938 -4.675781 6.589844 -5.136719 6.589844 -6.09375 L 6.589844 -27.640625 C 6.589844 -28.03125 6.273438 -28.347656 5.882812 -28.347656 L 2.480469 -28.347656 C 2.089844 -28.347656 1.773438 -28.03125 1.773438 -27.640625 L 1.773438 -5.101562 C 1.773438 -1.773438 3.542969 0 6.875 0 L 10.84375 0 C 14.175781 0 15.945312 -1.773438 15.945312 -5.101562 L 15.945312 -27.640625 C 15.945312 -28.03125 15.628906 -28.347656 15.238281 -28.347656 Z M 11.976562 -28.347656 "/></g></g></g><g fill="#f5f5f5" fill-opacity="1"><g transform="translate(148.805111, 121.201493)"><g><path d="M 2.339844 -28.347656 C 1.949219 -28.347656 1.773438 -28.136719 1.773438 -27.78125 L 1.773438 -0.566406 C 1.773438 -0.210938 1.949219 0 2.339844 0 L 6.023438 0 C 6.378906 0 6.589844 -0.210938 6.589844 -0.566406 L 6.589844 -27.78125 C 6.589844 -28.136719 6.378906 -28.347656 6.023438 -28.347656 Z M 2.339844 -28.347656 "/></g></g></g><g fill="#f5f5f5" fill-opacity="1"><g transform="translate(157.875726, 121.201493)"><g><path d="M 1.628906 -28.347656 C 1.277344 -28.347656 1.0625 -28.136719 1.0625 -27.78125 L 1.0625 -24.238281 C 1.0625 -23.882812 1.277344 -23.671875 1.628906 -23.671875 L 5.742188 -23.671875 L 5.742188 -0.566406 C 5.742188 -0.175781 5.953125 0 6.308594 0 L 9.992188 0 C 10.382812 0 10.558594 -0.175781 10.558594 -0.566406 L 10.558594 -23.671875 L 14.671875 -23.671875 C 15.058594 -23.671875 15.238281 -23.882812 15.238281 -24.238281 L 15.238281 -27.78125 C 15.238281 -28.136719 15.058594 -28.347656 14.671875 -28.347656 Z M 1.628906 -28.347656 "/></g></g></g><g fill="#f5f5f5" fill-opacity="1"><g transform="translate(174.883024, 121.201493)"><g><path d="M 18.851562 0 C 19.277344 0 19.417969 -0.210938 19.347656 -0.601562 L 13.464844 -27.851562 C 13.394531 -28.207031 13.183594 -28.347656 12.863281 -28.347656 L 7.9375 -28.347656 C 7.617188 -28.347656 7.40625 -28.207031 7.335938 -27.851562 L 1.453125 -0.601562 C 1.347656 -0.210938 1.523438 0 1.914062 0 L 5.707031 0 C 6.023438 0 6.203125 -0.175781 6.273438 -0.496094 L 7.230469 -5.667969 L 13.535156 -5.667969 L 14.527344 -0.496094 C 14.601562 -0.175781 14.777344 0 15.097656 0 Z M 12.652344 -9.78125 L 8.113281 -9.78125 L 10.382812 -22.148438 Z M 12.652344 -9.78125 "/></g></g></g><g fill="#f5f5f5" fill-opacity="1"><g transform="translate(196.354713, 121.201493)"><g><path d="M 16.335938 -23.246094 C 16.335938 -26.578125 14.5625 -28.347656 11.234375 -28.347656 L 2.339844 -28.347656 C 1.984375 -28.347656 1.773438 -28.136719 1.773438 -27.78125 L 1.773438 -0.566406 C 1.773438 -0.210938 1.984375 0 2.339844 0 L 6.023438 0 C 6.378906 0 6.589844 -0.210938 6.589844 -0.566406 L 6.589844 -9.496094 L 9.035156 -9.496094 L 11.410156 -0.496094 C 11.480469 -0.175781 11.660156 0 12.011719 0 L 15.699219 0 C 16.089844 0 16.300781 -0.210938 16.195312 -0.636719 L 13.75 -9.921875 C 15.449219 -10.667969 16.335938 -12.226562 16.335938 -14.601562 Z M 6.589844 -14.175781 L 6.589844 -23.671875 L 10.097656 -23.671875 C 11.019531 -23.671875 11.515625 -23.175781 11.515625 -22.253906 L 11.515625 -15.59375 C 11.515625 -14.671875 11.019531 -14.175781 10.097656 -14.175781 Z M 6.589844 -14.175781 "/></g></g></g><g fill="#f5f5f5" fill-opacity="1"><g transform="translate(0.2392, 148.189784)"><g><path d="M 5.839844 -13.085938 C 5.660156 -13.085938 5.578125 -12.988281 5.578125 -12.824219 L 5.578125 -5.921875 L 5.480469 -5.921875 L 2.992188 -12.871094 C 2.945312 -13.019531 2.847656 -13.085938 2.699219 -13.085938 L 1.078125 -13.085938 C 0.914062 -13.085938 0.816406 -12.988281 0.816406 -12.824219 L 0.816406 -0.261719 C 0.816406 -0.0976562 0.914062 0 1.078125 0 L 2.78125 0 C 2.960938 0 3.042969 -0.0976562 3.042969 -0.261719 L 3.042969 -7.195312 L 3.125 -7.195312 L 5.625 -0.210938 C 5.675781 -0.0664062 5.773438 0 5.921875 0 L 7.539062 0 C 7.703125 0 7.800781 -0.0976562 7.800781 -0.261719 L 7.800781 -12.824219 C 7.800781 -12.988281 7.703125 -13.085938 7.539062 -13.085938 Z M 5.839844 -13.085938 "/></g></g></g><g fill="#f5f5f5" fill-opacity="1"><g transform="translate(8.858386, 148.189784)"><g><path d="M 0.816406 -2.355469 C 0.816406 -0.816406 1.636719 0 3.171875 0 L 5.003906 0 C 6.542969 0 7.359375 -0.816406 7.359375 -2.355469 L 7.359375 -9.09375 C 7.359375 -10.632812 6.542969 -11.449219 5.003906 -11.449219 L 3.171875 -11.449219 C 1.636719 -11.449219 0.816406 -10.632812 0.816406 -9.09375 Z M 3.597656 -2.109375 C 3.171875 -2.109375 2.945312 -2.324219 2.945312 -2.765625 L 2.945312 -8.683594 C 2.945312 -9.109375 3.171875 -9.339844 3.597656 -9.339844 L 4.644531 -9.339844 C 5.070312 -9.339844 5.300781 -9.109375 5.300781 -8.683594 L 5.300781 -2.765625 C 5.300781 -2.324219 5.070312 -2.109375 4.644531 -2.109375 Z M 3.597656 -2.109375 "/></g></g></g><g fill="#f5f5f5" fill-opacity="1"><g transform="translate(17.035986, 148.189784)"><g/></g></g><g fill="#f5f5f5" fill-opacity="1"><g transform="translate(21.124784, 148.189784)"><g><path d="M 7.375 -9.09375 C 7.375 -10.632812 6.542969 -11.449219 5.003906 -11.449219 L 1.078125 -11.449219 C 0.914062 -11.449219 0.816406 -11.367188 0.816406 -11.1875 L 0.816406 -0.261719 C 0.816406 -0.0976562 0.914062 0 1.078125 0 L 5.003906 0 C 6.542969 0 7.375 -0.816406 7.375 -2.355469 L 7.375 -4.53125 C 7.375 -5.136719 6.933594 -5.59375 6.347656 -5.691406 L 6.347656 -5.722656 C 6.933594 -5.824219 7.375 -6.28125 7.375 -6.886719 Z M 5.300781 -7.425781 C 5.300781 -7.015625 5.070312 -6.789062 4.644531 -6.789062 L 2.847656 -6.789062 L 2.847656 -9.386719 L 4.644531 -9.386719 C 5.085938 -9.386719 5.300781 -9.160156 5.300781 -8.734375 Z M 5.300781 -2.714844 C 5.300781 -2.273438 5.070312 -2.0625 4.644531 -2.0625 L 2.847656 -2.0625 L 2.847656 -4.628906 L 4.644531 -4.628906 C 5.085938 -4.628906 5.300781 -4.398438 5.300781 -3.972656 Z M 5.300781 -2.714844 "/></g></g></g><g fill="#f5f5f5" fill-opacity="1"><g transform="translate(29.318736, 148.189784)"><g><path d="M 5.527344 -11.449219 C 5.347656 -11.449219 5.199219 -11.300781 5.199219 -11.121094 L 5.199219 -2.8125 C 5.199219 -2.371094 4.972656 -2.160156 4.546875 -2.160156 L 3.695312 -2.160156 C 3.269531 -2.160156 3.042969 -2.371094 3.042969 -2.8125 L 3.042969 -11.121094 C 3.042969 -11.300781 2.894531 -11.449219 2.714844 -11.449219 L 1.144531 -11.449219 C 0.964844 -11.449219 0.816406 -11.300781 0.816406 -11.121094 L 0.816406 -2.355469 C 0.816406 -0.816406 1.636719 0 3.171875 0 L 5.003906 0 C 6.542969 0 7.359375 -0.816406 7.359375 -2.355469 L 7.359375 -11.121094 C 7.359375 -11.300781 7.214844 -11.449219 7.03125 -11.449219 Z M 5.527344 -11.449219 "/></g></g></g><g fill="#f5f5f5" fill-opacity="1"><g transform="translate(37.496336, 148.189784)"><g><path d="M 1.339844 -11.449219 C 1.175781 -11.433594 1.078125 -11.351562 1.078125 -11.171875 L 1.078125 -9.550781 C 1.078125 -9.386719 1.175781 -9.289062 1.339844 -9.289062 L 4.710938 -9.289062 L 0.539062 -0.390625 C 0.425781 -0.164062 0.523438 0 0.785156 0 L 7.195312 0 C 7.359375 -0.015625 7.457031 -0.113281 7.457031 -0.277344 L 7.457031 -1.75 C 7.457031 -1.929688 7.359375 -2.011719 7.195312 -2.011719 L 3.613281 -2.011719 L 7.785156 -11.054688 C 7.898438 -11.285156 7.800781 -11.449219 7.539062 -11.449219 Z M 1.339844 -11.449219 "/></g></g></g><g fill="#f5f5f5" fill-opacity="1"><g transform="translate(45.804778, 148.189784)"><g><path d="M 1.339844 -11.449219 C 1.175781 -11.433594 1.078125 -11.351562 1.078125 -11.171875 L 1.078125 -9.550781 C 1.078125 -9.386719 1.175781 -9.289062 1.339844 -9.289062 L 4.710938 -9.289062 L 0.539062 -0.390625 C 0.425781 -0.164062 0.523438 0 0.785156 0 L 7.195312 0 C 7.359375 -0.015625 7.457031 -0.113281 7.457031 -0.277344 L 7.457031 -1.75 C 7.457031 -1.929688 7.359375 -2.011719 7.195312 -2.011719 L 3.613281 -2.011719 L 7.785156 -11.054688 C 7.898438 -11.285156 7.800781 -11.449219 7.539062 -11.449219 Z M 1.339844 -11.449219 "/></g></g></g><g fill="#f5f5f5" fill-opacity="1"><g transform="translate(0.2392, 171.389911)"><g><path d="M 5.136719 -2.8125 C 5.136719 -2.386719 4.90625 -2.160156 4.480469 -2.160156 L 3.632812 -2.160156 C 3.207031 -2.160156 2.976562 -2.386719 2.976562 -2.8125 L 2.976562 -4.054688 C 2.976562 -4.21875 2.878906 -4.316406 2.714844 -4.316406 L 1.078125 -4.316406 C 0.898438 -4.316406 0.816406 -4.21875 0.816406 -4.054688 L 0.816406 -2.355469 C 0.816406 -0.816406 1.636719 0 3.171875 0 L 5.003906 0 C 6.527344 0 7.359375 -0.816406 7.359375 -2.355469 L 7.359375 -12.824219 C 7.359375 -12.988281 7.261719 -13.085938 7.097656 -13.085938 L 5.398438 -13.085938 C 5.21875 -13.085938 5.136719 -12.988281 5.136719 -12.824219 Z M 5.136719 -2.8125 "/></g></g></g><g fill="#f5f5f5" fill-opacity="1"><g transform="translate(8.416801, 171.389911)"><g><path d="M 5.527344 -11.449219 C 5.347656 -11.449219 5.199219 -11.300781 5.199219 -11.121094 L 5.199219 -2.8125 C 5.199219 -2.371094 4.972656 -2.160156 4.546875 -2.160156 L 3.695312 -2.160156 C 3.269531 -2.160156 3.042969 -2.371094 3.042969 -2.8125 L 3.042969 -11.121094 C 3.042969 -11.300781 2.894531 -11.449219 2.714844 -11.449219 L 1.144531 -11.449219 C 0.964844 -11.449219 0.816406 -11.300781 0.816406 -11.121094 L 0.816406 -2.355469 C 0.816406 -0.816406 1.636719 0 3.171875 0 L 5.003906 0 C 6.542969 0 7.359375 -0.816406 7.359375 -2.355469 L 7.359375 -11.121094 C 7.359375 -11.300781 7.214844 -11.449219 7.03125 -11.449219 Z M 5.527344 -11.449219 "/></g></g></g><g fill="#f5f5f5" fill-opacity="1"><g transform="translate(16.594401, 171.389911)"><g><path d="M 3.171875 -11.449219 C 1.652344 -11.449219 0.816406 -10.632812 0.816406 -9.09375 L 0.816406 -6.265625 C 0.816406 -5.953125 0.964844 -5.757812 1.257812 -5.660156 L 5.183594 -4.382812 L 5.183594 -2.730469 C 5.183594 -2.289062 4.957031 -2.078125 4.53125 -2.078125 L 3.648438 -2.078125 C 3.238281 -2.078125 2.992188 -2.289062 2.992188 -2.730469 L 2.992188 -3.417969 C 2.992188 -3.597656 2.910156 -3.679688 2.730469 -3.679688 L 1.078125 -3.679688 C 0.914062 -3.679688 0.816406 -3.597656 0.816406 -3.417969 L 0.816406 -2.355469 C 0.816406 -0.816406 1.652344 0 3.171875 0 L 5.003906 0 C 6.542969 0 7.359375 -0.816406 7.359375 -2.355469 L 7.359375 -5.429688 C 7.359375 -5.742188 7.214844 -5.9375 6.933594 -6.035156 L 2.976562 -7.3125 L 2.976562 -8.703125 C 2.976562 -9.125 3.222656 -9.355469 3.632812 -9.355469 L 4.53125 -9.355469 C 4.972656 -9.355469 5.183594 -9.125 5.183594 -8.703125 L 5.183594 -8.015625 C 5.183594 -7.851562 5.28125 -7.753906 5.445312 -7.753906 L 7.097656 -7.753906 C 7.277344 -7.753906 7.359375 -7.851562 7.359375 -8.015625 L 7.359375 -9.09375 C 7.359375 -10.632812 6.542969 -11.449219 5.003906 -11.449219 Z M 3.171875 -11.449219 "/></g></g></g><g fill="#f5f5f5" fill-opacity="1"><g transform="translate(24.772001, 171.389911)"><g><path d="M 6.769531 -11.449219 C 6.953125 -11.449219 7.03125 -11.351562 7.03125 -11.1875 L 7.03125 -9.550781 C 7.03125 -9.386719 6.953125 -9.289062 6.769531 -9.289062 L 4.875 -9.289062 L 4.875 -0.261719 C 4.875 -0.0820312 4.792969 0 4.613281 0 L 2.910156 0 C 2.746094 0 2.648438 -0.0820312 2.648438 -0.261719 L 2.648438 -9.289062 L 0.753906 -9.289062 C 0.589844 -9.289062 0.492188 -9.386719 0.492188 -9.550781 L 0.492188 -11.1875 C 0.492188 -11.351562 0.589844 -11.449219 0.753906 -11.449219 Z M 6.769531 -11.449219 "/></g></g></g><g fill="#f5f5f5" fill-opacity="1"><g transform="translate(32.295394, 171.389911)"><g/></g></g><g fill="#f5f5f5" fill-opacity="1"><g transform="translate(36.384191, 171.389911)"><g><path d="M 7.359375 -9.09375 C 7.359375 -10.632812 6.542969 -11.449219 5.003906 -11.449219 L 1.078125 -11.449219 C 0.914062 -11.449219 0.816406 -11.351562 0.816406 -11.1875 L 0.816406 -0.261719 C 0.816406 -0.0976562 0.914062 0 1.078125 0 L 2.683594 0 C 2.847656 0 2.945312 -0.0976562 2.945312 -0.261719 L 2.945312 -3.449219 L 4.398438 -3.449219 L 5.183594 -0.230469 C 5.21875 -0.0820312 5.300781 0 5.460938 0 L 7.066406 0 C 7.246094 0 7.34375 -0.0976562 7.292969 -0.292969 L 6.445312 -3.8125 C 7.050781 -4.1875 7.359375 -4.859375 7.359375 -5.804688 Z M 2.945312 -5.5625 L 2.945312 -9.339844 L 4.578125 -9.339844 C 5.003906 -9.339844 5.234375 -9.109375 5.234375 -8.683594 L 5.234375 -6.214844 C 5.234375 -5.789062 5.003906 -5.5625 4.578125 -5.5625 Z M 2.945312 -5.5625 "/></g></g></g><g fill="#f5f5f5" fill-opacity="1"><g transform="translate(44.561792, 171.389911)"><g><path d="M 7.34375 -11.1875 C 7.34375 -11.351562 7.277344 -11.449219 7.082031 -11.449219 L 1.0625 -11.449219 C 0.914062 -11.449219 0.816406 -11.351562 0.816406 -11.1875 L 0.816406 -0.261719 C 0.816406 -0.0976562 0.914062 0 1.0625 0 L 7.082031 0 C 7.277344 0 7.34375 -0.0976562 7.34375 -0.261719 L 7.34375 -1.898438 C 7.34375 -2.078125 7.277344 -2.160156 7.082031 -2.160156 L 3.042969 -2.160156 L 3.042969 -4.578125 L 6.117188 -4.578125 C 6.28125 -4.578125 6.378906 -4.679688 6.378906 -4.859375 L 6.378906 -6.476562 C 6.378906 -6.65625 6.28125 -6.753906 6.117188 -6.753906 L 3.042969 -6.753906 L 3.042969 -9.273438 L 7.082031 -9.273438 C 7.277344 -9.273438 7.34375 -9.386719 7.34375 -9.550781 Z M 7.34375 -11.1875 "/></g></g></g><g fill="#f5f5f5" fill-opacity="1"><g transform="translate(52.723035, 171.389911)"><g><path d="M 8.539062 0 C 8.734375 0 8.816406 -0.0976562 8.765625 -0.277344 L 6.050781 -11.21875 C 6.019531 -11.382812 5.921875 -11.449219 5.773438 -11.449219 L 3.5 -11.449219 C 3.351562 -11.449219 3.253906 -11.382812 3.222656 -11.21875 L 0.507812 -0.277344 C 0.457031 -0.0976562 0.539062 0 0.71875 0 L 2.324219 0 C 2.46875 0 2.550781 -0.0820312 2.585938 -0.230469 L 3.089844 -2.289062 L 6.167969 -2.289062 L 6.691406 -0.230469 C 6.722656 -0.0820312 6.804688 0 6.953125 0 Z M 5.660156 -4.1875 L 3.597656 -4.1875 L 4.628906 -8.636719 Z M 5.660156 -4.1875 "/></g></g></g><g fill="#f5f5f5" fill-opacity="1"><g transform="translate(61.996428, 171.389911)"><g><path d="M 3.042969 -2.160156 L 6.28125 -2.160156 C 6.460938 -2.160156 6.542969 -2.0625 6.542969 -1.898438 L 6.542969 -0.261719 C 6.542969 -0.0820312 6.460938 0 6.28125 0 L 1.078125 0 C 0.914062 0 0.816406 -0.0820312 0.816406 -0.261719 L 0.816406 -11.1875 C 0.816406 -11.351562 0.914062 -11.449219 1.078125 -11.449219 L 2.78125 -11.449219 C 2.960938 -11.449219 3.042969 -11.351562 3.042969 -11.1875 Z M 3.042969 -2.160156 "/></g></g></g><g fill="#f5f5f5" fill-opacity="1"><g transform="translate(69.356265, 171.389911)"><g/></g></g><g fill="#f5f5f5" fill-opacity="1"><g transform="translate(73.445062, 171.389911)"><g><path d="M 0.816406 -0.261719 C 0.816406 -0.0976562 0.914062 0 1.078125 0 L 2.683594 0.015625 C 2.863281 0.015625 2.945312 -0.0820312 2.945312 -0.246094 L 2.945312 -3.515625 L 5.003906 -3.53125 C 6.542969 -3.550781 7.359375 -4.367188 7.359375 -5.886719 L 7.359375 -9.09375 C 7.359375 -10.632812 6.542969 -11.449219 5.003906 -11.449219 L 1.078125 -11.449219 C 0.914062 -11.449219 0.816406 -11.351562 0.816406 -11.1875 Z M 2.945312 -5.625 L 2.945312 -9.324219 L 4.578125 -9.339844 C 5.019531 -9.339844 5.234375 -9.109375 5.234375 -8.683594 L 5.234375 -6.296875 C 5.234375 -5.886719 5.019531 -5.644531 4.578125 -5.644531 Z M 2.945312 -5.625 "/></g></g></g><g fill="#f5f5f5" fill-opacity="1"><g transform="translate(81.622662, 171.389911)"><g><path d="M 7.34375 -11.1875 C 7.34375 -11.351562 7.277344 -11.449219 7.082031 -11.449219 L 1.0625 -11.449219 C 0.914062 -11.449219 0.816406 -11.351562 0.816406 -11.1875 L 0.816406 -0.261719 C 0.816406 -0.0976562 0.914062 0 1.0625 0 L 7.082031 0 C 7.277344 0 7.34375 -0.0976562 7.34375 -0.261719 L 7.34375 -1.898438 C 7.34375 -2.078125 7.277344 -2.160156 7.082031 -2.160156 L 3.042969 -2.160156 L 3.042969 -4.578125 L 6.117188 -4.578125 C 6.28125 -4.578125 6.378906 -4.679688 6.378906 -4.859375 L 6.378906 -6.476562 C 6.378906 -6.65625 6.28125 -6.753906 6.117188 -6.753906 L 3.042969 -6.753906 L 3.042969 -9.273438 L 7.082031 -9.273438 C 7.277344 -9.273438 7.34375 -9.386719 7.34375 -9.550781 Z M 7.34375 -11.1875 "/></g></g></g><g fill="#f5f5f5" fill-opacity="1"><g transform="translate(89.783905, 171.389911)"><g><path d="M 0.816406 -0.261719 C 0.816406 -0.0820312 0.898438 0 1.078125 0 L 5.003906 0 C 6.542969 0 7.359375 -0.816406 7.359375 -2.355469 L 7.359375 -9.078125 C 7.359375 -10.613281 6.542969 -11.449219 5.003906 -11.449219 L 1.078125 -11.449219 C 0.898438 -11.449219 0.816406 -11.351562 0.816406 -11.1875 Z M 3.042969 -2.160156 L 3.042969 -9.289062 L 4.546875 -9.289062 C 4.972656 -9.289062 5.199219 -9.0625 5.199219 -8.621094 L 5.199219 -2.8125 C 5.199219 -2.371094 4.972656 -2.160156 4.546875 -2.160156 Z M 3.042969 -2.160156 "/></g></g></g><g fill="#f5f5f5" fill-opacity="1"><g transform="translate(97.961511, 171.389911)"><g><path d="M 8.539062 0 C 8.734375 0 8.816406 -0.0976562 8.765625 -0.277344 L 6.050781 -11.21875 C 6.019531 -11.382812 5.921875 -11.449219 5.773438 -11.449219 L 3.5 -11.449219 C 3.351562 -11.449219 3.253906 -11.382812 3.222656 -11.21875 L 0.507812 -0.277344 C 0.457031 -0.0976562 0.539062 0 0.71875 0 L 2.324219 0 C 2.46875 0 2.550781 -0.0820312 2.585938 -0.230469 L 3.089844 -2.289062 L 6.167969 -2.289062 L 6.691406 -0.230469 C 6.722656 -0.0820312 6.804688 0 6.953125 0 Z M 5.660156 -4.1875 L 3.597656 -4.1875 L 4.628906 -8.636719 Z M 5.660156 -4.1875 "/></g></g></g><g fill="#f5f5f5" fill-opacity="1"><g transform="translate(107.234905, 171.389911)"><g><path d="M 3.042969 -2.160156 L 6.28125 -2.160156 C 6.460938 -2.160156 6.542969 -2.0625 6.542969 -1.898438 L 6.542969 -0.261719 C 6.542969 -0.0820312 6.460938 0 6.28125 0 L 1.078125 0 C 0.914062 0 0.816406 -0.0820312 0.816406 -0.261719 L 0.816406 -11.1875 C 0.816406 -11.351562 0.914062 -11.449219 1.078125 -11.449219 L 2.78125 -11.449219 C 2.960938 -11.449219 3.042969 -11.351562 3.042969 -11.1875 Z M 3.042969 -2.160156 "/></g></g></g><g fill="#f5f5f5" fill-opacity="1"><g transform="translate(114.594736, 171.389911)"><g/></g></g><g fill="#f5f5f5" fill-opacity="1"><g transform="translate(118.683533, 171.389911)"><g><path d="M 7.359375 -11.1875 C 7.359375 -11.351562 7.261719 -11.449219 7.097656 -11.449219 L 1.078125 -11.449219 C 0.898438 -11.449219 0.816406 -11.351562 0.816406 -11.1875 L 0.816406 -0.261719 C 0.816406 -0.0976562 0.898438 0 1.078125 0 L 2.78125 0 C 2.945312 0 3.042969 -0.0976562 3.042969 -0.261719 L 3.042969 -4.335938 L 6.117188 -4.335938 C 6.28125 -4.335938 6.378906 -4.417969 6.378906 -4.597656 L 6.378906 -6.230469 C 6.378906 -6.394531 6.28125 -6.492188 6.117188 -6.492188 L 3.042969 -6.492188 L 3.042969 -9.289062 L 7.097656 -9.289062 C 7.261719 -9.289062 7.359375 -9.386719 7.359375 -9.550781 Z M 7.359375 -11.1875 "/></g></g></g><g fill="#f5f5f5" fill-opacity="1"><g transform="translate(126.861128, 171.389911)"><g><path d="M 5.527344 -11.449219 C 5.347656 -11.449219 5.199219 -11.300781 5.199219 -11.121094 L 5.199219 -2.8125 C 5.199219 -2.371094 4.972656 -2.160156 4.546875 -2.160156 L 3.695312 -2.160156 C 3.269531 -2.160156 3.042969 -2.371094 3.042969 -2.8125 L 3.042969 -11.121094 C 3.042969 -11.300781 2.894531 -11.449219 2.714844 -11.449219 L 1.144531 -11.449219 C 0.964844 -11.449219 0.816406 -11.300781 0.816406 -11.121094 L 0.816406 -2.355469 C 0.816406 -0.816406 1.636719 0 3.171875 0 L 5.003906 0 C 6.542969 0 7.359375 -0.816406 7.359375 -2.355469 L 7.359375 -11.121094 C 7.359375 -11.300781 7.214844 -11.449219 7.03125 -11.449219 Z M 5.527344 -11.449219 "/></g></g></g><g fill="#f5f5f5" fill-opacity="1"><g transform="translate(135.038723, 171.389911)"><g><path d="M 1.339844 -11.449219 C 1.175781 -11.433594 1.078125 -11.351562 1.078125 -11.171875 L 1.078125 -9.550781 C 1.078125 -9.386719 1.175781 -9.289062 1.339844 -9.289062 L 4.710938 -9.289062 L 0.539062 -0.390625 C 0.425781 -0.164062 0.523438 0 0.785156 0 L 7.195312 0 C 7.359375 -0.015625 7.457031 -0.113281 7.457031 -0.277344 L 7.457031 -1.75 C 7.457031 -1.929688 7.359375 -2.011719 7.195312 -2.011719 L 3.613281 -2.011719 L 7.785156 -11.054688 C 7.898438 -11.285156 7.800781 -11.449219 7.539062 -11.449219 Z M 1.339844 -11.449219 "/></g></g></g><g fill="#f5f5f5" fill-opacity="1"><g transform="translate(143.347165, 171.389911)"><g><path d="M 1.339844 -11.449219 C 1.175781 -11.433594 1.078125 -11.351562 1.078125 -11.171875 L 1.078125 -9.550781 C 1.078125 -9.386719 1.175781 -9.289062 1.339844 -9.289062 L 4.710938 -9.289062 L 0.539062 -0.390625 C 0.425781 -0.164062 0.523438 0 0.785156 0 L 7.195312 0 C 7.359375 -0.015625 7.457031 -0.113281 7.457031 -0.277344 L 7.457031 -1.75 C 7.457031 -1.929688 7.359375 -2.011719 7.195312 -2.011719 L 3.613281 -2.011719 L 7.785156 -11.054688 C 7.898438 -11.285156 7.800781 -11.449219 7.539062 -11.449219 Z M 1.339844 -11.449219 "/></g></g></g></svg>