<svg xmlns="http://www.w3.org/2000/svg" xmlns:xlink="http://www.w3.org/1999/xlink" width="300" zoomAndPan="magnify" viewBox="0 0 224.87999 225" height="300" preserveAspectRatio="xMidYMid meet" version="1.0"><defs><g/></defs><g fill="#f5f5f5" fill-opacity="1"><g transform="translate(-0.000000000000021305, 35.442598)"><g><path d="M 1.632812 -28.410156 C 1.277344 -28.410156 1.066406 -28.195312 1.066406 -27.839844 L 1.066406 -24.289062 C 1.066406 -23.933594 1.277344 -23.722656 1.632812 -23.722656 L 5.753906 -23.722656 L 5.753906 -0.566406 C 5.753906 -0.175781 5.964844 0 6.320312 0 L 10.015625 0 C 10.40625 0 10.582031 -0.175781 10.582031 -0.566406 L 10.582031 -23.722656 L 14.703125 -23.722656 C 15.09375 -23.722656 15.269531 -23.933594 15.269531 -24.289062 L 15.269531 -27.839844 C 15.269531 -28.195312 15.09375 -28.410156 14.703125 -28.410156 Z M 1.632812 -28.410156 "/></g></g></g><g fill="#f5f5f5" fill-opacity="1"><g transform="translate(17.043557, 35.442598)"><g><path d="M 11.152344 -16.546875 L 6.605469 -16.546875 L 6.605469 -27.839844 C 6.605469 -28.195312 6.390625 -28.410156 6.035156 -28.410156 L 2.378906 -28.410156 C 1.953125 -28.410156 1.777344 -28.195312 1.777344 -27.839844 L 1.777344 -0.566406 C 1.777344 -0.214844 1.953125 0 2.378906 0 L 6.035156 0 C 6.390625 0 6.605469 -0.214844 6.605469 -0.566406 L 6.605469 -11.859375 L 11.152344 -11.859375 L 11.152344 -0.566406 C 11.152344 -0.214844 11.363281 0 11.71875 0 L 15.375 0 C 15.800781 0 15.980469 -0.214844 15.980469 -0.566406 L 15.980469 -27.839844 C 15.980469 -28.195312 15.800781 -28.410156 15.375 -28.410156 L 11.71875 -28.410156 C 11.363281 -28.410156 11.152344 -28.195312 11.152344 -27.839844 Z M 11.152344 -16.546875 "/></g></g></g><g fill="#f5f5f5" fill-opacity="1"><g transform="translate(35.507405, 35.442598)"><g><path d="M 15.945312 -27.839844 C 15.945312 -28.195312 15.800781 -28.410156 15.375 -28.410156 L 2.308594 -28.410156 C 1.988281 -28.410156 1.777344 -28.195312 1.777344 -27.839844 L 1.777344 -0.566406 C 1.777344 -0.214844 1.988281 0 2.308594 0 L 15.375 0 C 15.800781 0 15.945312 -0.214844 15.945312 -0.566406 L 15.945312 -4.121094 C 15.945312 -4.511719 15.800781 -4.6875 15.375 -4.6875 L 6.5 -4.6875 L 6.5 -11.859375 L 13.28125 -11.859375 C 13.636719 -11.859375 13.847656 -12.074219 13.847656 -12.464844 L 13.847656 -15.980469 C 13.847656 -16.371094 13.636719 -16.582031 13.28125 -16.582031 L 6.5 -16.582031 L 6.5 -23.6875 L 15.375 -23.6875 C 15.800781 -23.6875 15.945312 -23.933594 15.945312 -24.289062 Z M 15.945312 -27.839844 "/></g></g></g><g fill="#f5f5f5" fill-opacity="1"><g transform="translate(53.935744, 35.442598)"><g/></g></g><g fill="#f5f5f5" fill-opacity="1"><g transform="translate(63.522796, 35.442598)"><g><path d="M 12.675781 -28.410156 C 12.285156 -28.410156 12.109375 -28.195312 12.109375 -27.839844 L 12.109375 -12.855469 L 11.894531 -12.855469 L 6.5 -27.949219 C 6.390625 -28.265625 6.179688 -28.410156 5.859375 -28.410156 L 2.34375 -28.410156 C 1.988281 -28.410156 1.777344 -28.195312 1.777344 -27.839844 L 1.777344 -0.566406 C 1.777344 -0.214844 1.988281 0 2.34375 0 L 6.035156 0 C 6.425781 0 6.605469 -0.214844 6.605469 -0.566406 L 6.605469 -15.625 L 6.78125 -15.625 L 12.214844 -0.460938 C 12.324219 -0.140625 12.535156 0 12.855469 0 L 16.371094 0 C 16.726562 0 16.9375 -0.214844 16.9375 -0.566406 L 16.9375 -27.839844 C 16.9375 -28.195312 16.726562 -28.410156 16.371094 -28.410156 Z M 12.675781 -28.410156 "/></g></g></g><g fill="#f5f5f5" fill-opacity="1"><g transform="translate(82.945333, 35.442598)"><g><path d="M 16.371094 -23.296875 C 16.371094 -26.632812 14.59375 -28.410156 11.257812 -28.410156 L 2.34375 -28.410156 C 1.988281 -28.410156 1.777344 -28.195312 1.777344 -27.839844 L 1.777344 -0.566406 C 1.777344 -0.214844 1.988281 0 2.34375 0 L 6.035156 0 C 6.390625 0 6.605469 -0.214844 6.605469 -0.566406 L 6.605469 -9.515625 L 9.054688 -9.515625 L 11.433594 -0.496094 C 11.503906 -0.175781 11.683594 0 12.039062 0 L 15.730469 0 C 16.121094 0 16.335938 -0.214844 16.230469 -0.640625 L 13.777344 -9.941406 C 15.484375 -10.6875 16.371094 -12.25 16.371094 -14.628906 Z M 6.605469 -14.203125 L 6.605469 -23.722656 L 10.121094 -23.722656 C 11.042969 -23.722656 11.542969 -23.226562 11.542969 -22.300781 L 11.542969 -15.625 C 11.542969 -14.703125 11.042969 -14.203125 10.121094 -14.203125 Z M 6.605469 -14.203125 "/></g></g></g><g fill="#f5f5f5" fill-opacity="1"><g transform="translate(101.799758, 35.442598)"><g><path d="M 1.777344 -0.710938 C 1.777344 -0.25 2.023438 0 2.484375 0 L 5.71875 0 C 6.179688 0 6.425781 -0.25 6.425781 -0.710938 L 6.425781 -3.976562 C 6.425781 -4.4375 6.179688 -4.6875 5.71875 -4.6875 L 2.484375 -4.6875 C 2.023438 -4.6875 1.777344 -4.4375 1.777344 -3.976562 Z M 1.777344 -0.710938 "/></g></g></g><g fill="#f5f5f5" fill-opacity="1"><g transform="translate(110.712174, 35.442598)"><g><path d="M 2.449219 -27.523438 C 1.988281 -27.484375 1.777344 -27.238281 1.777344 -26.777344 L 1.777344 -23.367188 C 1.777344 -22.90625 2.058594 -22.65625 2.519531 -22.726562 L 4.722656 -23.011719 L 4.722656 -0.566406 C 4.722656 -0.214844 4.902344 0 5.292969 0 L 8.984375 0 C 9.339844 0 9.550781 -0.214844 9.550781 -0.566406 L 9.550781 -27.839844 C 9.550781 -28.195312 9.339844 -28.410156 8.984375 -28.410156 Z M 2.449219 -27.523438 "/></g></g></g><g fill="#f5f5f5" fill-opacity="1"><g transform="translate(123.104297, 35.442598)"><g/></g></g><g fill="#f5f5f5" fill-opacity="1"><g transform="translate(132.691355, 35.442598)"><g><path d="M 6.890625 -28.410156 C 3.585938 -28.410156 1.777344 -26.632812 1.777344 -23.296875 L 1.777344 -14.914062 C 1.777344 -14.238281 2.09375 -13.8125 2.734375 -13.601562 L 11.152344 -10.832031 L 11.152344 -6.109375 C 11.152344 -5.148438 10.652344 -4.6875 9.730469 -4.6875 L 8.027344 -4.6875 C 7.136719 -4.6875 6.605469 -5.148438 6.605469 -6.109375 L 6.605469 -8.84375 C 6.605469 -9.234375 6.425781 -9.410156 6.035156 -9.410156 L 2.34375 -9.410156 C 1.988281 -9.410156 1.777344 -9.234375 1.777344 -8.84375 L 1.777344 -5.113281 C 1.777344 -1.777344 3.585938 0 6.890625 0 L 10.867188 0 C 14.203125 0 15.980469 -1.777344 15.980469 -5.113281 L 15.980469 -13.316406 C 15.980469 -13.992188 15.660156 -14.382812 15.058594 -14.628906 L 6.605469 -17.402344 L 6.605469 -22.300781 C 6.605469 -23.226562 7.136719 -23.722656 8.027344 -23.722656 L 9.730469 -23.722656 C 10.6875 -23.722656 11.152344 -23.226562 11.152344 -22.300781 L 11.152344 -19.53125 C 11.152344 -19.175781 11.363281 -18.964844 11.71875 -18.964844 L 15.410156 -18.964844 C 15.800781 -18.964844 15.980469 -19.175781 15.980469 -19.53125 L 15.980469 -23.296875 C 15.980469 -26.632812 14.203125 -28.410156 10.867188 -28.410156 Z M 6.890625 -28.410156 "/></g></g></g><g fill="#f5f5f5" fill-opacity="1"><g transform="translate(151.155207, 35.442598)"><g><path d="M 2.34375 -28.410156 C 1.953125 -28.410156 1.777344 -28.195312 1.777344 -27.839844 L 1.777344 -0.566406 C 1.777344 -0.214844 1.953125 0 2.34375 0 L 6.035156 0 C 6.390625 0 6.605469 -0.214844 6.605469 -0.566406 L 6.605469 -27.839844 C 6.605469 -28.195312 6.390625 -28.410156 6.035156 -28.410156 Z M 2.34375 -28.410156 "/></g></g></g><g fill="#f5f5f5" fill-opacity="1"><g transform="translate(160.24516, 35.442598)"><g><path d="M 1.632812 -28.410156 C 1.277344 -28.410156 1.066406 -28.195312 1.066406 -27.839844 L 1.066406 -24.289062 C 1.066406 -23.933594 1.277344 -23.722656 1.632812 -23.722656 L 5.753906 -23.722656 L 5.753906 -0.566406 C 5.753906 -0.175781 5.964844 0 6.320312 0 L 10.015625 0 C 10.40625 0 10.582031 -0.175781 10.582031 -0.566406 L 10.582031 -23.722656 L 14.703125 -23.722656 C 15.09375 -23.722656 15.269531 -23.933594 15.269531 -24.289062 L 15.269531 -27.839844 C 15.269531 -28.195312 15.09375 -28.410156 14.703125 -28.410156 Z M 1.632812 -28.410156 "/></g></g></g><g fill="#f5f5f5" fill-opacity="1"><g transform="translate(177.288716, 35.442598)"><g><path d="M 15.945312 -27.839844 C 15.945312 -28.195312 15.800781 -28.410156 15.375 -28.410156 L 2.308594 -28.410156 C 1.988281 -28.410156 1.777344 -28.195312 1.777344 -27.839844 L 1.777344 -0.566406 C 1.777344 -0.214844 1.988281 0 2.308594 0 L 15.375 0 C 15.800781 0 15.945312 -0.214844 15.945312 -0.566406 L 15.945312 -4.121094 C 15.945312 -4.511719 15.800781 -4.6875 15.375 -4.6875 L 6.5 -4.6875 L 6.5 -11.859375 L 13.28125 -11.859375 C 13.636719 -11.859375 13.847656 -12.074219 13.847656 -12.464844 L 13.847656 -15.980469 C 13.847656 -16.371094 13.636719 -16.582031 13.28125 -16.582031 L 6.5 -16.582031 L 6.5 -23.6875 L 15.375 -23.6875 C 15.800781 -23.6875 15.945312 -23.933594 15.945312 -24.289062 Z M 15.945312 -27.839844 "/></g></g></g><g fill="#f5f5f5" fill-opacity="1"><g transform="translate(-0.000000000000021305, 72.727165)"><g><path d="M 15.980469 -27.839844 C 15.980469 -28.195312 15.765625 -28.410156 15.410156 -28.410156 L 2.34375 -28.410156 C 1.953125 -28.410156 1.777344 -28.195312 1.777344 -27.839844 L 1.777344 -0.566406 C 1.777344 -0.214844 1.953125 0 2.34375 0 L 6.035156 0 C 6.390625 0 6.605469 -0.214844 6.605469 -0.566406 L 6.605469 -11.894531 L 13.28125 -11.894531 C 13.636719 -11.894531 13.847656 -12.074219 13.847656 -12.464844 L 13.847656 -16.015625 C 13.847656 -16.371094 13.636719 -16.582031 13.28125 -16.582031 L 6.605469 -16.582031 L 6.605469 -23.722656 L 15.410156 -23.722656 C 15.765625 -23.722656 15.980469 -23.933594 15.980469 -24.289062 Z M 15.980469 -27.839844 "/></g></g></g><g fill="#f5f5f5" fill-opacity="1"><g transform="translate(18.463848, 72.727165)"><g><path d="M 1.777344 -5.113281 C 1.777344 -1.777344 3.550781 0 6.890625 0 L 10.867188 0 C 14.203125 0 15.980469 -1.777344 15.980469 -5.113281 L 15.980469 -23.296875 C 15.980469 -26.632812 14.203125 -28.410156 10.867188 -28.410156 L 6.890625 -28.410156 C 3.550781 -28.410156 1.777344 -26.632812 1.777344 -23.296875 Z M 7.917969 -4.582031 C 6.996094 -4.582031 6.5 -5.042969 6.5 -6 L 6.5 -22.40625 C 6.5 -23.332031 6.996094 -23.828125 7.917969 -23.828125 L 9.980469 -23.828125 C 10.902344 -23.828125 11.398438 -23.332031 11.398438 -22.40625 L 11.398438 -6 C 11.398438 -5.042969 10.902344 -4.582031 9.980469 -4.582031 Z M 7.917969 -4.582031 "/></g></g></g><g fill="#f5f5f5" fill-opacity="1"><g transform="translate(36.927696, 72.727165)"><g><path d="M 16.371094 -23.296875 C 16.371094 -26.632812 14.59375 -28.410156 11.257812 -28.410156 L 2.34375 -28.410156 C 1.988281 -28.410156 1.777344 -28.195312 1.777344 -27.839844 L 1.777344 -0.566406 C 1.777344 -0.214844 1.988281 0 2.34375 0 L 6.035156 0 C 6.390625 0 6.605469 -0.214844 6.605469 -0.566406 L 6.605469 -9.515625 L 9.054688 -9.515625 L 11.433594 -0.496094 C 11.503906 -0.175781 11.683594 0 12.039062 0 L 15.730469 0 C 16.121094 0 16.335938 -0.214844 16.230469 -0.640625 L 13.777344 -9.941406 C 15.484375 -10.6875 16.371094 -12.25 16.371094 -14.628906 Z M 6.605469 -14.203125 L 6.605469 -23.722656 L 10.121094 -23.722656 C 11.042969 -23.722656 11.542969 -23.226562 11.542969 -22.300781 L 11.542969 -15.625 C 11.542969 -14.703125 11.042969 -14.203125 10.121094 -14.203125 Z M 6.605469 -14.203125 "/></g></g></g><g fill="#f5f5f5" fill-opacity="1"><g transform="translate(55.782125, 72.727165)"><g/></g></g><g fill="#f5f5f5" fill-opacity="1"><g transform="translate(65.369177, 72.727165)"><g><path d="M 18.890625 0 C 19.316406 0 19.460938 -0.214844 19.390625 -0.605469 L 13.496094 -27.914062 C 13.421875 -28.265625 13.210938 -28.410156 12.890625 -28.410156 L 7.953125 -28.410156 C 7.636719 -28.410156 7.421875 -28.265625 7.351562 -27.914062 L 1.457031 -0.605469 C 1.347656 -0.214844 1.527344 0 1.917969 0 L 5.71875 0 C 6.035156 0 6.214844 -0.175781 6.285156 -0.496094 L 7.246094 -5.683594 L 13.566406 -5.683594 L 14.558594 -0.496094 C 14.628906 -0.175781 14.808594 0 15.128906 0 Z M 12.675781 -9.800781 L 8.132812 -9.800781 L 10.40625 -22.195312 Z M 12.675781 -9.800781 "/></g></g></g><g fill="#f5f5f5" fill-opacity="1"><g transform="translate(86.886641, 72.727165)"><g><path d="M 6.605469 -4.6875 L 15.058594 -4.6875 C 15.449219 -4.6875 15.625 -4.472656 15.625 -4.121094 L 15.625 -0.566406 C 15.625 -0.175781 15.449219 0 15.058594 0 L 2.34375 0 C 1.988281 0 1.777344 -0.175781 1.777344 -0.566406 L 1.777344 -27.839844 C 1.777344 -28.195312 1.988281 -28.410156 2.34375 -28.410156 L 6.035156 -28.410156 C 6.425781 -28.410156 6.605469 -28.195312 6.605469 -27.839844 Z M 6.605469 -4.6875 "/></g></g></g><g fill="#f5f5f5" fill-opacity="1"><g transform="translate(104.995414, 72.727165)"><g><path d="M 6.605469 -4.6875 L 15.058594 -4.6875 C 15.449219 -4.6875 15.625 -4.472656 15.625 -4.121094 L 15.625 -0.566406 C 15.625 -0.175781 15.449219 0 15.058594 0 L 2.34375 0 C 1.988281 0 1.777344 -0.175781 1.777344 -0.566406 L 1.777344 -27.839844 C 1.777344 -28.195312 1.988281 -28.410156 2.34375 -28.410156 L 6.035156 -28.410156 C 6.425781 -28.410156 6.605469 -28.195312 6.605469 -27.839844 Z M 6.605469 -4.6875 "/></g></g></g><g fill="#f5f5f5" fill-opacity="1"><g transform="translate(-0.000000000000021305, 110.011732)"><g><path d="M 1.632812 -28.410156 C 1.277344 -28.410156 1.066406 -28.195312 1.066406 -27.839844 L 1.066406 -24.289062 C 1.066406 -23.933594 1.277344 -23.722656 1.632812 -23.722656 L 5.753906 -23.722656 L 5.753906 -0.566406 C 5.753906 -0.175781 5.964844 0 6.320312 0 L 10.015625 0 C 10.40625 0 10.582031 -0.175781 10.582031 -0.566406 L 10.582031 -23.722656 L 14.703125 -23.722656 C 15.09375 -23.722656 15.269531 -23.933594 15.269531 -24.289062 L 15.269531 -27.839844 C 15.269531 -28.195312 15.09375 -28.410156 14.703125 -28.410156 Z M 1.632812 -28.410156 "/></g></g></g><g fill="#f5f5f5" fill-opacity="1"><g transform="translate(17.043557, 110.011732)"><g><path d="M 11.152344 -16.546875 L 6.605469 -16.546875 L 6.605469 -27.839844 C 6.605469 -28.195312 6.390625 -28.410156 6.035156 -28.410156 L 2.378906 -28.410156 C 1.953125 -28.410156 1.777344 -28.195312 1.777344 -27.839844 L 1.777344 -0.566406 C 1.777344 -0.214844 1.953125 0 2.378906 0 L 6.035156 0 C 6.390625 0 6.605469 -0.214844 6.605469 -0.566406 L 6.605469 -11.859375 L 11.152344 -11.859375 L 11.152344 -0.566406 C 11.152344 -0.214844 11.363281 0 11.71875 0 L 15.375 0 C 15.800781 0 15.980469 -0.214844 15.980469 -0.566406 L 15.980469 -27.839844 C 15.980469 -28.195312 15.800781 -28.410156 15.375 -28.410156 L 11.71875 -28.410156 C 11.363281 -28.410156 11.152344 -28.195312 11.152344 -27.839844 Z M 11.152344 -16.546875 "/></g></g></g><g fill="#f5f5f5" fill-opacity="1"><g transform="translate(35.507405, 110.011732)"><g><path d="M 2.34375 -28.410156 C 1.953125 -28.410156 1.777344 -28.195312 1.777344 -27.839844 L 1.777344 -0.566406 C 1.777344 -0.214844 1.953125 0 2.34375 0 L 6.035156 0 C 6.390625 0 6.605469 -0.214844 6.605469 -0.566406 L 6.605469 -27.839844 C 6.605469 -28.195312 6.390625 -28.410156 6.035156 -28.410156 Z M 2.34375 -28.410156 "/></g></g></g><g fill="#f5f5f5" fill-opacity="1"><g transform="translate(44.597361, 110.011732)"><g><path d="M 12.675781 -28.410156 C 12.285156 -28.410156 12.109375 -28.195312 12.109375 -27.839844 L 12.109375 -12.855469 L 11.894531 -12.855469 L 6.5 -27.949219 C 6.390625 -28.265625 6.179688 -28.410156 5.859375 -28.410156 L 2.34375 -28.410156 C 1.988281 -28.410156 1.777344 -28.195312 1.777344 -27.839844 L 1.777344 -0.566406 C 1.777344 -0.214844 1.988281 0 2.34375 0 L 6.035156 0 C 6.425781 0 6.605469 -0.214844 6.605469 -0.566406 L 6.605469 -15.625 L 6.78125 -15.625 L 12.214844 -0.460938 C 12.324219 -0.140625 12.535156 0 12.855469 0 L 16.371094 0 C 16.726562 0 16.9375 -0.214844 16.9375 -0.566406 L 16.9375 -27.839844 C 16.9375 -28.195312 16.726562 -28.410156 16.371094 -28.410156 Z M 12.675781 -28.410156 "/></g></g></g><g fill="#f5f5f5" fill-opacity="1"><g transform="translate(64.019897, 110.011732)"><g><path d="M 1.777344 -5.113281 C 1.777344 -1.777344 3.550781 0 6.890625 0 L 11.578125 0 C 14.878906 0 16.691406 -1.777344 16.691406 -5.113281 L 16.691406 -14.984375 C 16.691406 -15.375 16.476562 -15.554688 16.121094 -15.554688 L 10.15625 -15.554688 C 9.765625 -15.554688 9.589844 -15.375 9.589844 -14.984375 L 9.589844 -11.433594 C 9.589844 -11.078125 9.765625 -10.867188 10.15625 -10.867188 L 12.003906 -10.867188 L 12.003906 -6.109375 C 12.003906 -5.148438 11.503906 -4.6875 10.582031 -4.6875 L 8.027344 -4.6875 C 7.101562 -4.6875 6.605469 -5.148438 6.605469 -6.109375 L 6.605469 -22.300781 C 6.605469 -23.226562 7.066406 -23.722656 8.027344 -23.722656 L 10.582031 -23.722656 C 11.503906 -23.722656 12.003906 -23.226562 12.003906 -22.300781 L 12.003906 -19.601562 C 12.003906 -19.246094 12.179688 -19.035156 12.570312 -19.035156 L 16.121094 -19.035156 C 16.476562 -19.035156 16.691406 -19.246094 16.691406 -19.601562 L 16.691406 -23.296875 C 16.691406 -26.632812 14.878906 -28.410156 11.578125 -28.410156 L 6.890625 -28.410156 C 3.550781 -28.410156 1.777344 -26.632812 1.777344 -23.296875 Z M 1.777344 -5.113281 "/></g></g></g><g fill="#f5f5f5" fill-opacity="1"><g transform="translate(83.193886, 110.011732)"><g><path d="M 6.890625 -28.410156 C 3.585938 -28.410156 1.777344 -26.632812 1.777344 -23.296875 L 1.777344 -14.914062 C 1.777344 -14.238281 2.09375 -13.8125 2.734375 -13.601562 L 11.152344 -10.832031 L 11.152344 -6.109375 C 11.152344 -5.148438 10.652344 -4.6875 9.730469 -4.6875 L 8.027344 -4.6875 C 7.136719 -4.6875 6.605469 -5.148438 6.605469 -6.109375 L 6.605469 -8.84375 C 6.605469 -9.234375 6.425781 -9.410156 6.035156 -9.410156 L 2.34375 -9.410156 C 1.988281 -9.410156 1.777344 -9.234375 1.777344 -8.84375 L 1.777344 -5.113281 C 1.777344 -1.777344 3.585938 0 6.890625 0 L 10.867188 0 C 14.203125 0 15.980469 -1.777344 15.980469 -5.113281 L 15.980469 -13.316406 C 15.980469 -13.992188 15.660156 -14.382812 15.058594 -14.628906 L 6.605469 -17.402344 L 6.605469 -22.300781 C 6.605469 -23.226562 7.136719 -23.722656 8.027344 -23.722656 L 9.730469 -23.722656 C 10.6875 -23.722656 11.152344 -23.226562 11.152344 -22.300781 L 11.152344 -19.53125 C 11.152344 -19.175781 11.363281 -18.964844 11.71875 -18.964844 L 15.410156 -18.964844 C 15.800781 -18.964844 15.980469 -19.175781 15.980469 -19.53125 L 15.980469 -23.296875 C 15.980469 -26.632812 14.203125 -28.410156 10.867188 -28.410156 Z M 6.890625 -28.410156 "/></g></g></g><g fill="#f5f5f5" fill-opacity="1"><g transform="translate(101.657738, 110.011732)"><g/></g></g><g fill="#f5f5f5" fill-opacity="1"><g transform="translate(111.244796, 110.011732)"><g><path d="M 1.777344 -5.113281 C 1.777344 -1.777344 3.550781 0 6.890625 0 L 11.578125 0 C 14.878906 0 16.691406 -1.777344 16.691406 -5.113281 L 16.691406 -14.984375 C 16.691406 -15.375 16.476562 -15.554688 16.121094 -15.554688 L 10.15625 -15.554688 C 9.765625 -15.554688 9.589844 -15.375 9.589844 -14.984375 L 9.589844 -11.433594 C 9.589844 -11.078125 9.765625 -10.867188 10.15625 -10.867188 L 12.003906 -10.867188 L 12.003906 -6.109375 C 12.003906 -5.148438 11.503906 -4.6875 10.582031 -4.6875 L 8.027344 -4.6875 C 7.101562 -4.6875 6.605469 -5.148438 6.605469 -6.109375 L 6.605469 -22.300781 C 6.605469 -23.226562 7.066406 -23.722656 8.027344 -23.722656 L 10.582031 -23.722656 C 11.503906 -23.722656 12.003906 -23.226562 12.003906 -22.300781 L 12.003906 -19.601562 C 12.003906 -19.246094 12.179688 -19.035156 12.570312 -19.035156 L 16.121094 -19.035156 C 16.476562 -19.035156 16.691406 -19.246094 16.691406 -19.601562 L 16.691406 -23.296875 C 16.691406 -26.632812 14.878906 -28.410156 11.578125 -28.410156 L 6.890625 -28.410156 C 3.550781 -28.410156 1.777344 -26.632812 1.777344 -23.296875 Z M 1.777344 -5.113281 "/></g></g></g><g fill="#f5f5f5" fill-opacity="1"><g transform="translate(130.418785, 110.011732)"><g><path d="M 12.003906 -28.410156 C 11.613281 -28.410156 11.292969 -28.089844 11.292969 -27.699219 L 11.292969 -6.109375 C 11.292969 -5.148438 10.796875 -4.6875 9.871094 -4.6875 L 8.027344 -4.6875 C 7.101562 -4.6875 6.605469 -5.148438 6.605469 -6.109375 L 6.605469 -27.699219 C 6.605469 -28.089844 6.285156 -28.410156 5.894531 -28.410156 L 2.484375 -28.410156 C 2.09375 -28.410156 1.777344 -28.089844 1.777344 -27.699219 L 1.777344 -5.113281 C 1.777344 -1.777344 3.550781 0 6.890625 0 L 10.867188 0 C 14.203125 0 15.980469 -1.777344 15.980469 -5.113281 L 15.980469 -27.699219 C 15.980469 -28.089844 15.660156 -28.410156 15.269531 -28.410156 Z M 12.003906 -28.410156 "/></g></g></g><g fill="#f5f5f5" fill-opacity="1"><g transform="translate(148.882638, 110.011732)"><g><path d="M 2.34375 -28.410156 C 1.953125 -28.410156 1.777344 -28.195312 1.777344 -27.839844 L 1.777344 -0.566406 C 1.777344 -0.214844 1.953125 0 2.34375 0 L 6.035156 0 C 6.390625 0 6.605469 -0.214844 6.605469 -0.566406 L 6.605469 -27.839844 C 6.605469 -28.195312 6.390625 -28.410156 6.035156 -28.410156 Z M 2.34375 -28.410156 "/></g></g></g><g fill="#f5f5f5" fill-opacity="1"><g transform="translate(157.97259, 110.011732)"><g><path d="M 1.632812 -28.410156 C 1.277344 -28.410156 1.066406 -28.195312 1.066406 -27.839844 L 1.066406 -24.289062 C 1.066406 -23.933594 1.277344 -23.722656 1.632812 -23.722656 L 5.753906 -23.722656 L 5.753906 -0.566406 C 5.753906 -0.175781 5.964844 0 6.320312 0 L 10.015625 0 C 10.40625 0 10.582031 -0.175781 10.582031 -0.566406 L 10.582031 -23.722656 L 14.703125 -23.722656 C 15.09375 -23.722656 15.269531 -23.933594 15.269531 -24.289062 L 15.269531 -27.839844 C 15.269531 -28.195312 15.09375 -28.410156 14.703125 -28.410156 Z M 1.632812 -28.410156 "/></g></g></g><g fill="#f5f5f5" fill-opacity="1"><g transform="translate(175.016146, 110.011732)"><g><path d="M 18.890625 0 C 19.316406 0 19.460938 -0.214844 19.390625 -0.605469 L 13.496094 -27.914062 C 13.421875 -28.265625 13.210938 -28.410156 12.890625 -28.410156 L 7.953125 -28.410156 C 7.636719 -28.410156 7.421875 -28.265625 7.351562 -27.914062 L 1.457031 -0.605469 C 1.347656 -0.214844 1.527344 0 1.917969 0 L 5.71875 0 C 6.035156 0 6.214844 -0.175781 6.285156 -0.496094 L 7.246094 -5.683594 L 13.566406 -5.683594 L 14.558594 -0.496094 C 14.628906 -0.175781 14.808594 0 15.128906 0 Z M 12.675781 -9.800781 L 8.132812 -9.800781 L 10.40625 -22.195312 Z M 12.675781 -9.800781 "/></g></g></g><g fill="#f5f5f5" fill-opacity="1"><g transform="translate(196.53361, 110.011732)"><g><path d="M 16.371094 -23.296875 C 16.371094 -26.632812 14.59375 -28.410156 11.257812 -28.410156 L 2.34375 -28.410156 C 1.988281 -28.410156 1.777344 -28.195312 1.777344 -27.839844 L 1.777344 -0.566406 C 1.777344 -0.214844 1.988281 0 2.34375 0 L 6.035156 0 C 6.390625 0 6.605469 -0.214844 6.605469 -0.566406 L 6.605469 -9.515625 L 9.054688 -9.515625 L 11.433594 -0.496094 C 11.503906 -0.175781 11.683594 0 12.039062 0 L 15.730469 0 C 16.121094 0 16.335938 -0.214844 16.230469 -0.640625 L 13.777344 -9.941406 C 15.484375 -10.6875 16.371094 -12.25 16.371094 -14.628906 Z M 6.605469 -14.203125 L 6.605469 -23.722656 L 10.121094 -23.722656 C 11.042969 -23.722656 11.542969 -23.226562 11.542969 -22.300781 L 11.542969 -15.625 C 11.542969 -14.703125 11.042969 -14.203125 10.121094 -14.203125 Z M 6.605469 -14.203125 "/></g></g></g><g fill="#f5f5f5" fill-opacity="1"><g transform="translate(23.860223, 137.057556)"><g><path d="M 5.851562 -13.113281 C 5.671875 -13.113281 5.589844 -13.015625 5.589844 -12.851562 L 5.589844 -5.933594 L 5.492188 -5.933594 L 3 -12.898438 C 2.949219 -13.046875 2.851562 -13.113281 2.703125 -13.113281 L 1.082031 -13.113281 C 0.917969 -13.113281 0.820312 -13.015625 0.820312 -12.851562 L 0.820312 -0.261719 C 0.820312 -0.0976562 0.917969 0 1.082031 0 L 2.785156 0 C 2.964844 0 3.046875 -0.0976562 3.046875 -0.261719 L 3.046875 -7.210938 L 3.128906 -7.210938 L 5.636719 -0.214844 C 5.6875 -0.0664062 5.785156 0 5.933594 0 L 7.554688 0 C 7.71875 0 7.820312 -0.0976562 7.820312 -0.261719 L 7.820312 -12.851562 C 7.820312 -13.015625 7.71875 -13.113281 7.554688 -13.113281 Z M 5.851562 -13.113281 "/></g></g></g><g fill="#f5f5f5" fill-opacity="1"><g transform="translate(32.497784, 137.057556)"><g><path d="M 0.820312 -2.359375 C 0.820312 -0.820312 1.640625 0 3.179688 0 L 5.015625 0 C 6.554688 0 7.375 -0.820312 7.375 -2.359375 L 7.375 -9.113281 C 7.375 -10.652344 6.554688 -11.472656 5.015625 -11.472656 L 3.179688 -11.472656 C 1.640625 -11.472656 0.820312 -10.652344 0.820312 -9.113281 Z M 3.605469 -2.113281 C 3.179688 -2.113281 2.949219 -2.328125 2.949219 -2.769531 L 2.949219 -8.703125 C 2.949219 -9.128906 3.179688 -9.359375 3.605469 -9.359375 L 4.65625 -9.359375 C 5.082031 -9.359375 5.3125 -9.128906 5.3125 -8.703125 L 5.3125 -2.769531 C 5.3125 -2.328125 5.082031 -2.113281 4.65625 -2.113281 Z M 3.605469 -2.113281 "/></g></g></g><g fill="#f5f5f5" fill-opacity="1"><g transform="translate(40.692818, 137.057556)"><g/></g></g><g fill="#f5f5f5" fill-opacity="1"><g transform="translate(44.790333, 137.057556)"><g><path d="M 7.390625 -9.113281 C 7.390625 -10.652344 6.554688 -11.472656 5.015625 -11.472656 L 1.082031 -11.472656 C 0.917969 -11.472656 0.820312 -11.390625 0.820312 -11.210938 L 0.820312 -0.261719 C 0.820312 -0.0976562 0.917969 0 1.082031 0 L 5.015625 0 C 6.554688 0 7.390625 -0.820312 7.390625 -2.359375 L 7.390625 -4.539062 C 7.390625 -5.148438 6.949219 -5.605469 6.359375 -5.703125 L 6.359375 -5.738281 C 6.949219 -5.835938 7.390625 -6.292969 7.390625 -6.902344 Z M 5.3125 -7.441406 C 5.3125 -7.03125 5.082031 -6.800781 4.65625 -6.800781 L 2.851562 -6.800781 L 2.851562 -9.410156 L 4.65625 -9.410156 C 5.097656 -9.410156 5.3125 -9.179688 5.3125 -8.753906 Z M 5.3125 -2.722656 C 5.3125 -2.277344 5.082031 -2.066406 4.65625 -2.066406 L 2.851562 -2.066406 L 2.851562 -4.636719 L 4.65625 -4.636719 C 5.097656 -4.636719 5.3125 -4.410156 5.3125 -3.984375 Z M 5.3125 -2.722656 "/></g></g></g><g fill="#f5f5f5" fill-opacity="1"><g transform="translate(53.001753, 137.057556)"><g><path d="M 5.539062 -11.472656 C 5.359375 -11.472656 5.210938 -11.324219 5.210938 -11.144531 L 5.210938 -2.820312 C 5.210938 -2.375 4.984375 -2.164062 4.554688 -2.164062 L 3.703125 -2.164062 C 3.277344 -2.164062 3.046875 -2.375 3.046875 -2.820312 L 3.046875 -11.144531 C 3.046875 -11.324219 2.902344 -11.472656 2.722656 -11.472656 L 1.148438 -11.472656 C 0.96875 -11.472656 0.820312 -11.324219 0.820312 -11.144531 L 0.820312 -2.359375 C 0.820312 -0.820312 1.640625 0 3.179688 0 L 5.015625 0 C 6.554688 0 7.375 -0.820312 7.375 -2.359375 L 7.375 -11.144531 C 7.375 -11.324219 7.226562 -11.472656 7.046875 -11.472656 Z M 5.539062 -11.472656 "/></g></g></g><g fill="#f5f5f5" fill-opacity="1"><g transform="translate(61.196787, 137.057556)"><g><path d="M 1.34375 -11.472656 C 1.179688 -11.457031 1.082031 -11.375 1.082031 -11.195312 L 1.082031 -9.570312 C 1.082031 -9.410156 1.179688 -9.308594 1.34375 -9.308594 L 4.71875 -9.308594 L 0.539062 -0.394531 C 0.425781 -0.164062 0.523438 0 0.785156 0 L 7.210938 0 C 7.375 -0.015625 7.472656 -0.113281 7.472656 -0.277344 L 7.472656 -1.753906 C 7.472656 -1.933594 7.375 -2.015625 7.210938 -2.015625 L 3.621094 -2.015625 L 7.800781 -11.082031 C 7.917969 -11.308594 7.820312 -11.472656 7.554688 -11.472656 Z M 1.34375 -11.472656 "/></g></g></g><g fill="#f5f5f5" fill-opacity="1"><g transform="translate(69.522942, 137.057556)"><g><path d="M 1.34375 -11.472656 C 1.179688 -11.457031 1.082031 -11.375 1.082031 -11.195312 L 1.082031 -9.570312 C 1.082031 -9.410156 1.179688 -9.308594 1.34375 -9.308594 L 4.71875 -9.308594 L 0.539062 -0.394531 C 0.425781 -0.164062 0.523438 0 0.785156 0 L 7.210938 0 C 7.375 -0.015625 7.472656 -0.113281 7.472656 -0.277344 L 7.472656 -1.753906 C 7.472656 -1.933594 7.375 -2.015625 7.210938 -2.015625 L 3.621094 -2.015625 L 7.800781 -11.082031 C 7.917969 -11.308594 7.820312 -11.472656 7.554688 -11.472656 Z M 1.34375 -11.472656 "/></g></g></g><g fill="#f5f5f5" fill-opacity="1"><g transform="translate(52.630342, 160.659055)"><g><path d="M 5.148438 -2.820312 C 5.148438 -2.394531 4.917969 -2.164062 4.492188 -2.164062 L 3.640625 -2.164062 C 3.210938 -2.164062 2.984375 -2.394531 2.984375 -2.820312 L 2.984375 -4.066406 C 2.984375 -4.230469 2.886719 -4.328125 2.722656 -4.328125 L 1.082031 -4.328125 C 0.902344 -4.328125 0.820312 -4.230469 0.820312 -4.066406 L 0.820312 -2.359375 C 0.820312 -0.820312 1.640625 0 3.179688 0 L 5.015625 0 C 6.539062 0 7.375 -0.820312 7.375 -2.359375 L 7.375 -12.851562 C 7.375 -13.015625 7.277344 -13.113281 7.113281 -13.113281 L 5.410156 -13.113281 C 5.230469 -13.113281 5.148438 -13.015625 5.148438 -12.851562 Z M 5.148438 -2.820312 "/></g></g></g><g fill="#f5f5f5" fill-opacity="1"><g transform="translate(60.825376, 160.659055)"><g><path d="M 5.539062 -11.472656 C 5.359375 -11.472656 5.210938 -11.324219 5.210938 -11.144531 L 5.210938 -2.820312 C 5.210938 -2.375 4.984375 -2.164062 4.554688 -2.164062 L 3.703125 -2.164062 C 3.277344 -2.164062 3.046875 -2.375 3.046875 -2.820312 L 3.046875 -11.144531 C 3.046875 -11.324219 2.902344 -11.472656 2.722656 -11.472656 L 1.148438 -11.472656 C 0.96875 -11.472656 0.820312 -11.324219 0.820312 -11.144531 L 0.820312 -2.359375 C 0.820312 -0.820312 1.640625 0 3.179688 0 L 5.015625 0 C 6.554688 0 7.375 -0.820312 7.375 -2.359375 L 7.375 -11.144531 C 7.375 -11.324219 7.226562 -11.472656 7.046875 -11.472656 Z M 5.539062 -11.472656 "/></g></g></g><g fill="#f5f5f5" fill-opacity="1"><g transform="translate(69.02041, 160.659055)"><g><path d="M 3.179688 -11.472656 C 1.65625 -11.472656 0.820312 -10.652344 0.820312 -9.113281 L 0.820312 -6.277344 C 0.820312 -5.964844 0.96875 -5.769531 1.261719 -5.671875 L 5.195312 -4.394531 L 5.195312 -2.738281 C 5.195312 -2.292969 4.964844 -2.082031 4.539062 -2.082031 L 3.65625 -2.082031 C 3.246094 -2.082031 3 -2.292969 3 -2.738281 L 3 -3.425781 C 3 -3.605469 2.917969 -3.6875 2.738281 -3.6875 L 1.082031 -3.6875 C 0.917969 -3.6875 0.820312 -3.605469 0.820312 -3.425781 L 0.820312 -2.359375 C 0.820312 -0.820312 1.65625 0 3.179688 0 L 5.015625 0 C 6.554688 0 7.375 -0.820312 7.375 -2.359375 L 7.375 -5.441406 C 7.375 -5.753906 7.226562 -5.949219 6.949219 -6.046875 L 2.984375 -7.328125 L 2.984375 -8.71875 C 2.984375 -9.144531 3.230469 -9.375 3.640625 -9.375 L 4.539062 -9.375 C 4.984375 -9.375 5.195312 -9.144531 5.195312 -8.71875 L 5.195312 -8.03125 C 5.195312 -7.867188 5.292969 -7.769531 5.457031 -7.769531 L 7.113281 -7.769531 C 7.292969 -7.769531 7.375 -7.867188 7.375 -8.03125 L 7.375 -9.113281 C 7.375 -10.652344 6.554688 -11.472656 5.015625 -11.472656 Z M 3.179688 -11.472656 "/></g></g></g><g fill="#f5f5f5" fill-opacity="1"><g transform="translate(77.215445, 160.659055)"><g><path d="M 6.785156 -11.472656 C 6.964844 -11.472656 7.046875 -11.375 7.046875 -11.210938 L 7.046875 -9.570312 C 7.046875 -9.410156 6.964844 -9.308594 6.785156 -9.308594 L 4.882812 -9.308594 L 4.882812 -0.261719 C 4.882812 -0.0820312 4.800781 0 4.621094 0 L 2.917969 0 C 2.753906 0 2.65625 -0.0820312 2.65625 -0.261719 L 2.65625 -9.308594 L 0.753906 -9.308594 C 0.589844 -9.308594 0.492188 -9.410156 0.492188 -9.570312 L 0.492188 -11.210938 C 0.492188 -11.375 0.589844 -11.472656 0.753906 -11.472656 Z M 6.785156 -11.472656 "/></g></g></g><g fill="#f5f5f5" fill-opacity="1"><g transform="translate(84.754876, 160.659055)"><g/></g></g><g fill="#f5f5f5" fill-opacity="1"><g transform="translate(88.85239, 160.659055)"><g><path d="M 7.375 -9.113281 C 7.375 -10.652344 6.554688 -11.472656 5.015625 -11.472656 L 1.082031 -11.472656 C 0.917969 -11.472656 0.820312 -11.375 0.820312 -11.210938 L 0.820312 -0.261719 C 0.820312 -0.0976562 0.917969 0 1.082031 0 L 2.6875 0 C 2.851562 0 2.949219 -0.0976562 2.949219 -0.261719 L 2.949219 -3.457031 L 4.410156 -3.457031 L 5.195312 -0.230469 C 5.230469 -0.0820312 5.3125 0 5.472656 0 L 7.082031 0 C 7.261719 0 7.359375 -0.0976562 7.308594 -0.296875 L 6.457031 -3.820312 C 7.0625 -4.195312 7.375 -4.867188 7.375 -5.820312 Z M 2.949219 -5.574219 L 2.949219 -9.359375 L 4.589844 -9.359375 C 5.015625 -9.359375 5.246094 -9.128906 5.246094 -8.703125 L 5.246094 -6.226562 C 5.246094 -5.800781 5.015625 -5.574219 4.589844 -5.574219 Z M 2.949219 -5.574219 "/></g></g></g><g fill="#f5f5f5" fill-opacity="1"><g transform="translate(97.047425, 160.659055)"><g><path d="M 7.359375 -11.210938 C 7.359375 -11.375 7.292969 -11.472656 7.097656 -11.472656 L 1.066406 -11.472656 C 0.917969 -11.472656 0.820312 -11.375 0.820312 -11.210938 L 0.820312 -0.261719 C 0.820312 -0.0976562 0.917969 0 1.066406 0 L 7.097656 0 C 7.292969 0 7.359375 -0.0976562 7.359375 -0.261719 L 7.359375 -1.902344 C 7.359375 -2.082031 7.292969 -2.164062 7.097656 -2.164062 L 3.046875 -2.164062 L 3.046875 -4.589844 L 6.128906 -4.589844 C 6.292969 -4.589844 6.390625 -4.6875 6.390625 -4.867188 L 6.390625 -6.492188 C 6.390625 -6.671875 6.292969 -6.769531 6.128906 -6.769531 L 3.046875 -6.769531 L 3.046875 -9.292969 L 7.097656 -9.292969 C 7.292969 -9.292969 7.359375 -9.410156 7.359375 -9.570312 Z M 7.359375 -11.210938 "/></g></g></g><g fill="#f5f5f5" fill-opacity="1"><g transform="translate(105.226067, 160.659055)"><g><path d="M 8.554688 0 C 8.753906 0 8.835938 -0.0976562 8.785156 -0.277344 L 6.066406 -11.242188 C 6.03125 -11.40625 5.933594 -11.472656 5.785156 -11.472656 L 3.507812 -11.472656 C 3.359375 -11.472656 3.261719 -11.40625 3.230469 -11.242188 L 0.507812 -0.277344 C 0.457031 -0.0976562 0.539062 0 0.722656 0 L 2.328125 0 C 2.476562 0 2.558594 -0.0820312 2.589844 -0.230469 L 3.097656 -2.292969 L 6.179688 -2.292969 L 6.703125 -0.230469 C 6.738281 -0.0820312 6.820312 0 6.964844 0 Z M 5.671875 -4.195312 L 3.605469 -4.195312 L 4.636719 -8.65625 Z M 5.671875 -4.195312 "/></g></g></g><g fill="#f5f5f5" fill-opacity="1"><g transform="translate(114.51923, 160.659055)"><g><path d="M 3.046875 -2.164062 L 6.292969 -2.164062 C 6.472656 -2.164062 6.554688 -2.066406 6.554688 -1.902344 L 6.554688 -0.261719 C 6.554688 -0.0820312 6.472656 0 6.292969 0 L 1.082031 0 C 0.917969 0 0.820312 -0.0820312 0.820312 -0.261719 L 0.820312 -11.210938 C 0.820312 -11.375 0.917969 -11.472656 1.082031 -11.472656 L 2.785156 -11.472656 C 2.964844 -11.472656 3.046875 -11.375 3.046875 -11.210938 Z M 3.046875 -2.164062 "/></g></g></g><g fill="#f5f5f5" fill-opacity="1"><g transform="translate(121.894757, 160.659055)"><g/></g></g><g fill="#f5f5f5" fill-opacity="1"><g transform="translate(125.992271, 160.659055)"><g><path d="M 0.820312 -0.261719 C 0.820312 -0.0976562 0.917969 0 1.082031 0 L 2.6875 0.015625 C 2.867188 0.015625 2.949219 -0.0820312 2.949219 -0.246094 L 2.949219 -3.523438 L 5.015625 -3.539062 C 6.554688 -3.558594 7.375 -4.375 7.375 -5.902344 L 7.375 -9.113281 C 7.375 -10.652344 6.554688 -11.472656 5.015625 -11.472656 L 1.082031 -11.472656 C 0.917969 -11.472656 0.820312 -11.375 0.820312 -11.210938 Z M 2.949219 -5.636719 L 2.949219 -9.34375 L 4.589844 -9.359375 C 5.03125 -9.359375 5.246094 -9.128906 5.246094 -8.703125 L 5.246094 -6.308594 C 5.246094 -5.902344 5.03125 -5.65625 4.589844 -5.65625 Z M 2.949219 -5.636719 "/></g></g></g><g fill="#f5f5f5" fill-opacity="1"><g transform="translate(134.187305, 160.659055)"><g><path d="M 7.359375 -11.210938 C 7.359375 -11.375 7.292969 -11.472656 7.097656 -11.472656 L 1.066406 -11.472656 C 0.917969 -11.472656 0.820312 -11.375 0.820312 -11.210938 L 0.820312 -0.261719 C 0.820312 -0.0976562 0.917969 0 1.066406 0 L 7.097656 0 C 7.292969 0 7.359375 -0.0976562 7.359375 -0.261719 L 7.359375 -1.902344 C 7.359375 -2.082031 7.292969 -2.164062 7.097656 -2.164062 L 3.046875 -2.164062 L 3.046875 -4.589844 L 6.128906 -4.589844 C 6.292969 -4.589844 6.390625 -4.6875 6.390625 -4.867188 L 6.390625 -6.492188 C 6.390625 -6.671875 6.292969 -6.769531 6.128906 -6.769531 L 3.046875 -6.769531 L 3.046875 -9.292969 L 7.097656 -9.292969 C 7.292969 -9.292969 7.359375 -9.410156 7.359375 -9.570312 Z M 7.359375 -11.210938 "/></g></g></g><g fill="#f5f5f5" fill-opacity="1"><g transform="translate(142.365947, 160.659055)"><g><path d="M 0.820312 -0.261719 C 0.820312 -0.0820312 0.902344 0 1.082031 0 L 5.015625 0 C 6.554688 0 7.375 -0.820312 7.375 -2.359375 L 7.375 -9.097656 C 7.375 -10.636719 6.554688 -11.472656 5.015625 -11.472656 L 1.082031 -11.472656 C 0.902344 -11.472656 0.820312 -11.375 0.820312 -11.210938 Z M 3.046875 -2.164062 L 3.046875 -9.308594 L 4.554688 -9.308594 C 4.984375 -9.308594 5.210938 -9.082031 5.210938 -8.636719 L 5.210938 -2.820312 C 5.210938 -2.375 4.984375 -2.164062 4.554688 -2.164062 Z M 3.046875 -2.164062 "/></g></g></g><g fill="#f5f5f5" fill-opacity="1"><g transform="translate(150.560987, 160.659055)"><g><path d="M 8.554688 0 C 8.753906 0 8.835938 -0.0976562 8.785156 -0.277344 L 6.066406 -11.242188 C 6.03125 -11.40625 5.933594 -11.472656 5.785156 -11.472656 L 3.507812 -11.472656 C 3.359375 -11.472656 3.261719 -11.40625 3.230469 -11.242188 L 0.507812 -0.277344 C 0.457031 -0.0976562 0.539062 0 0.722656 0 L 2.328125 0 C 2.476562 0 2.558594 -0.0820312 2.589844 -0.230469 L 3.097656 -2.292969 L 6.179688 -2.292969 L 6.703125 -0.230469 C 6.738281 -0.0820312 6.820312 0 6.964844 0 Z M 5.671875 -4.195312 L 3.605469 -4.195312 L 4.636719 -8.65625 Z M 5.671875 -4.195312 "/></g></g></g><g fill="#f5f5f5" fill-opacity="1"><g transform="translate(159.85415, 160.659055)"><g><path d="M 3.046875 -2.164062 L 6.292969 -2.164062 C 6.472656 -2.164062 6.554688 -2.066406 6.554688 -1.902344 L 6.554688 -0.261719 C 6.554688 -0.0820312 6.472656 0 6.292969 0 L 1.082031 0 C 0.917969 0 0.820312 -0.0820312 0.820312 -0.261719 L 0.820312 -11.210938 C 0.820312 -11.375 0.917969 -11.472656 1.082031 -11.472656 L 2.785156 -11.472656 C 2.964844 -11.472656 3.046875 -11.375 3.046875 -11.210938 Z M 3.046875 -2.164062 "/></g></g></g><g fill="#f5f5f5" fill-opacity="1"><g transform="translate(167.229671, 160.659055)"><g/></g></g><g fill="#f5f5f5" fill-opacity="1"><g transform="translate(171.327186, 160.659055)"><g><path d="M 7.375 -11.210938 C 7.375 -11.375 7.277344 -11.472656 7.113281 -11.472656 L 1.082031 -11.472656 C 0.902344 -11.472656 0.820312 -11.375 0.820312 -11.210938 L 0.820312 -0.261719 C 0.820312 -0.0976562 0.902344 0 1.082031 0 L 2.785156 0 C 2.949219 0 3.046875 -0.0976562 3.046875 -0.261719 L 3.046875 -4.34375 L 6.128906 -4.34375 C 6.292969 -4.34375 6.390625 -4.425781 6.390625 -4.605469 L 6.390625 -6.246094 C 6.390625 -6.410156 6.292969 -6.507812 6.128906 -6.507812 L 3.046875 -6.507812 L 3.046875 -9.308594 L 7.113281 -9.308594 C 7.277344 -9.308594 7.375 -9.410156 7.375 -9.570312 Z M 7.375 -11.210938 "/></g></g></g><g fill="#f5f5f5" fill-opacity="1"><g transform="translate(179.522214, 160.659055)"><g><path d="M 5.539062 -11.472656 C 5.359375 -11.472656 5.210938 -11.324219 5.210938 -11.144531 L 5.210938 -2.820312 C 5.210938 -2.375 4.984375 -2.164062 4.554688 -2.164062 L 3.703125 -2.164062 C 3.277344 -2.164062 3.046875 -2.375 3.046875 -2.820312 L 3.046875 -11.144531 C 3.046875 -11.324219 2.902344 -11.472656 2.722656 -11.472656 L 1.148438 -11.472656 C 0.96875 -11.472656 0.820312 -11.324219 0.820312 -11.144531 L 0.820312 -2.359375 C 0.820312 -0.820312 1.640625 0 3.179688 0 L 5.015625 0 C 6.554688 0 7.375 -0.820312 7.375 -2.359375 L 7.375 -11.144531 C 7.375 -11.324219 7.226562 -11.472656 7.046875 -11.472656 Z M 5.539062 -11.472656 "/></g></g></g><g fill="#f5f5f5" fill-opacity="1"><g transform="translate(187.717243, 160.659055)"><g><path d="M 1.34375 -11.472656 C 1.179688 -11.457031 1.082031 -11.375 1.082031 -11.195312 L 1.082031 -9.570312 C 1.082031 -9.410156 1.179688 -9.308594 1.34375 -9.308594 L 4.71875 -9.308594 L 0.539062 -0.394531 C 0.425781 -0.164062 0.523438 0 0.785156 0 L 7.210938 0 C 7.375 -0.015625 7.472656 -0.113281 7.472656 -0.277344 L 7.472656 -1.753906 C 7.472656 -1.933594 7.375 -2.015625 7.210938 -2.015625 L 3.621094 -2.015625 L 7.800781 -11.082031 C 7.917969 -11.308594 7.820312 -11.472656 7.554688 -11.472656 Z M 1.34375 -11.472656 "/></g></g></g><g fill="#f5f5f5" fill-opacity="1"><g transform="translate(196.043398, 160.659055)"><g><path d="M 1.34375 -11.472656 C 1.179688 -11.457031 1.082031 -11.375 1.082031 -11.195312 L 1.082031 -9.570312 C 1.082031 -9.410156 1.179688 -9.308594 1.34375 -9.308594 L 4.71875 -9.308594 L 0.539062 -0.394531 C 0.425781 -0.164062 0.523438 0 0.785156 0 L 7.210938 0 C 7.375 -0.015625 7.472656 -0.113281 7.472656 -0.277344 L 7.472656 -1.753906 C 7.472656 -1.933594 7.375 -2.015625 7.210938 -2.015625 L 3.621094 -2.015625 L 7.800781 -11.082031 C 7.917969 -11.308594 7.820312 -11.472656 7.554688 -11.472656 Z M 1.34375 -11.472656 "/></g></g></g></svg>